<svg width="155" height="155" viewBox="0 0 155 155" fill="none" xmlns="http://www.w3.org/2000/svg">
<path d="M102.052 34.4907C100.925 33.2091 100.246 34.3363 99.7361 35.3939C99.4813 36.1659 98.3465 35.0542 97.258 36.1659C96.4319 36.992 95.7603 38.1114 96.1308 38.343C96.5014 38.5746 97.6749 37.2931 98.0068 37.1464C98.7788 36.8453 100.192 37.9724 101.242 35.7877C102.515 37.2159 104.33 35.1932 105.001 34.4366C105.673 33.6801 105.827 32.4835 104.77 33.1628C102.608 34.5216 102.484 34.923 102.052 34.4907Z" fill="#0B4CB7"/>
<path d="M80.8531 62.599C84.165 61.055 102.052 55.1569 105.287 54.1841C107.31 53.582 106.26 52.6401 103.743 53.2809C99.6051 54.1841 83.3003 59.5959 79.9189 61.1708C75.4027 63.2784 73.6039 65.6099 75.0321 71.9172C77.0625 81.1812 81.7949 92.661 83.6709 94.6219C84.6513 95.5946 85.2535 95.1469 84.3502 93.4948C82.5437 90.2601 78.2591 79.8843 76.5298 71.6161C75.2714 65.9109 77.0239 64.4827 80.8531 62.599Z" fill="#0B4CB7"/>
<path d="M56.5804 113.559C57.1825 107.021 66.6165 106.573 66.6165 106.573C67.1414 104.542 73.1554 82.7409 73.5645 79.5525C74.1667 74.9204 72.5146 75.9395 70.7081 74.1484C70.1059 73.5463 70.0365 70.9909 68.9016 70.6126C67.7668 70.2344 66.0529 71.9637 65.2963 70.3888C64.5398 68.8139 68.6777 57.9131 67.9289 56.786C67.18 55.6589 65.7518 56.014 65.7518 54.2307C65.7518 52.2775 64.3236 52.648 63.9453 51.6753C63.4204 50.2471 66.5779 44.3104 63.3432 44.9125C62.6638 45.0592 61.4672 45.9625 60.4095 45.7386C59.3519 45.5147 60.1856 43.7777 59.4368 43.3299C58.688 42.8821 57.6303 43.5538 56.9509 43.2527C55.901 42.8821 55.7543 40.6974 54.6967 40.3963C53.639 40.0952 52.2957 41.9403 51.0914 41.2995C49.8871 40.6588 49.7944 38.1575 49.0224 37.8332C47.7563 37.2851 46.6215 39.3772 44.8922 39.1919C43.8423 39.0375 43.464 37.231 42.6379 37.3855C40.8314 37.7637 38.6544 49.1122 37.45 49.4828C36.8479 49.6372 36.678 49.1122 36.099 49.4133C35.1958 49.8611 33.011 57.3804 31.9611 57.1334C30.9111 56.8864 33.1654 48.4946 31.8144 47.3675C30.9111 46.5955 29.7068 48.0392 28.5797 47.4447C27.6764 46.9892 27.6069 45.1827 26.7809 44.9588C25.9548 44.735 25.5766 45.4838 24.5266 45.1132C23.4767 44.7427 23.6234 43.4534 22.6429 43.3067C21.6625 43.1601 20.9136 44.2872 19.8637 43.9861C19.3669 43.7593 18.9521 43.3849 18.6758 42.9138C18.3995 42.4427 18.2751 41.8979 18.3197 41.3536C17.7252 45.2136 22.6815 57.4345 24.4108 62.3985C26.8195 60.2214 30.1237 58.9399 36.8865 62.3985C38.5386 63.6723 41.2483 70.5895 36.817 76.0785C35.0105 78.3327 33.7984 79.1665 37.0409 79.6065C37.6353 79.6992 37.643 80.587 38.3919 80.587C39.1407 80.587 40.4995 79.9076 40.87 80.062C41.2406 80.2164 40.7233 82.0152 41.1711 82.2391C41.6189 82.463 42.7151 82.0924 43.3559 82.3935C43.9967 82.6946 43.8114 83.5824 44.4058 83.8217C45.0003 84.061 46.359 83.2195 46.884 83.4434C47.4089 83.6673 47.656 83.8912 48.1655 84.1228C48.675 84.3544 49.7095 84.1923 50.2654 84.3467C50.8212 84.5011 50.7208 85.5433 51.1686 85.6977C51.7708 85.9138 52.7126 85.1573 53.199 85.3194C53.8783 85.5355 53.8783 86.6781 54.4728 86.6781C55.901 86.7476 55.5999 87.5736 56.1326 87.8052C57.0281 88.253 58.0163 86.9869 58.7574 86.6781C60.1239 86.0991 58.6108 88.1063 59.4368 88.3302C62.216 89.0019 65.6746 80.1392 62.741 74.1948C68.8321 77.2828 69.2104 81.9148 67.4811 86.076C65.2269 91.5572 62.741 92.8387 59.3596 92.1594C58.2325 91.9355 46.359 89.0019 30.1237 81.3513C31.7758 86.0914 33.5051 91.2793 35.2344 95.7106C35.9873 96.444 36.5619 97.3405 36.9139 98.3309C37.2659 99.3213 37.386 100.379 37.2648 101.423C39.2179 106.758 40.4995 110.139 41.1711 111.267C44.5525 116.941 51.9947 115.59 56.5804 113.559Z" fill="#0B4CB7"/>
<path d="M137.302 115.034C136.175 114.208 133.843 112.625 133.017 112.1C133.095 110.371 132.871 107.739 132.045 106.843C131.535 106.226 127.32 102.443 125.274 102.103C123.343 101.894 121.391 101.996 119.492 102.404C117.685 102.929 114.682 106.465 114.088 107.808C113.408 109.314 113.933 114.803 114.759 116.154C115.586 117.505 120.248 121.264 121.901 121.264C123.148 121.214 124.385 121.012 125.583 120.662C129.868 123.295 130.624 124.522 132.948 124.723C136.854 125.07 141.44 118.068 137.302 115.034ZM130.918 107.816C131.365 108.271 131.589 110.371 131.512 111.799C125.398 107.592 128.702 112.903 126.78 104.434C128.235 105.476 129.618 106.616 130.918 107.847V107.816ZM131.141 113.382C130.247 115.147 129.162 116.809 127.907 118.338C126.367 117.657 124.925 116.772 123.622 115.706C125.048 114.367 126.242 112.802 127.158 111.074C128.572 111.695 129.909 112.48 131.141 113.413V113.382ZM116.11 115.335C115.207 114.355 115.053 109.244 115.508 108.341C116.033 107.214 118.735 104.211 119.94 103.832C121.617 103.468 123.341 103.367 125.05 103.531C125.506 105.075 126.255 108.935 126.031 109.993C125.807 111.051 123.02 114.579 122.348 114.88C119.94 115.436 116.635 115.968 116.11 115.366V115.335ZM121.823 119.767C121.221 119.689 119.114 118.261 117.608 116.987C119.15 116.958 120.685 116.782 122.194 116.462C123.307 117.524 124.575 118.412 125.954 119.095C124.608 119.484 123.222 119.72 121.823 119.797V119.767ZM131.589 122.855C132.503 122.54 133.339 122.033 134.04 121.367C134.741 120.701 135.29 119.892 135.65 118.994C136.067 117.628 135.357 117.45 134.971 117.867C134.237 118.709 133.095 121.172 129.86 121.851C129.088 121.326 128.061 120.5 127.544 120.199C128.229 120.024 128.837 119.628 129.273 119.072C130.578 117.451 131.689 115.684 132.585 113.807C132.732 114.934 132.13 116.81 130.856 118.392C130.762 118.473 130.699 118.584 130.678 118.707C130.657 118.829 130.68 118.955 130.742 119.063C130.805 119.17 130.903 119.252 131.019 119.295C131.136 119.337 131.264 119.338 131.381 119.296C132.662 119.103 133.859 116.509 134.013 114.664C135.943 116.069 139.209 117.404 136.491 121.125C134.716 123.403 133.172 123.526 131.628 122.878L131.589 122.855Z" fill="#0B4CB7"/>
<path d="M57.2524 120.176C56.9513 119.952 56.4804 120.098 56.8046 121.002C57.1289 121.905 58.9122 122.955 59.9621 123.634C60.7882 124.159 61.0121 124.159 60.7882 125.433C58.3641 138.557 59.5144 139.113 55.3841 136.488C55.0058 136.257 54.4809 136.257 54.6121 136.859C54.9069 137.533 55.3883 138.11 55.9997 138.52C56.611 138.93 57.3269 139.158 58.063 139.175C60.379 139.321 60.1937 136.905 62.201 125.649C62.7954 122.438 60.6569 123.58 57.2524 120.176Z" fill="#0B4CB7"/>
<path d="M97.6596 32.2362C97.9963 32.4206 98.3836 32.4909 98.7635 32.4366C99.1435 32.3823 99.4956 32.2064 99.7672 31.9352C100.67 30.9547 100.447 30.3911 99.0878 31.0319C98.7361 31.0737 98.3797 31.0475 98.0379 30.9547C97.8717 30.9054 97.6969 30.8923 97.5253 30.9163C97.3536 30.9402 97.1891 31.0007 97.0428 31.0936C96.8965 31.1865 96.7718 31.3097 96.6771 31.4549C96.5824 31.6 96.5199 31.7638 96.4939 31.9352C93.4831 30.7617 94.1779 33.1781 96.4244 33.3634C96.6589 33.3779 96.8924 33.3211 97.094 33.2003C97.2956 33.0796 97.4559 32.9007 97.5538 32.6871C97.6187 32.545 97.655 32.3922 97.6596 32.2362Z" fill="#0B4CB7"/>
<path d="M128.888 83.0424C128.61 81.6142 125.653 71.8483 123.7 68.5364C122.874 67.1853 121.144 66.6604 122.048 68.6908C123.244 71.3233 127.158 81.2436 127.382 83.274C127.606 85.15 126.857 85.7521 123.623 87.4814C121.445 88.678 100.848 95.8191 95.892 97.0234C91.6769 98.0039 90.102 95.0702 89.1215 93.0399C87.9944 90.8628 82.4359 77.26 81.3088 72.1493C80.4828 68.3897 80.4056 66.8843 84.1652 65.3788C100.624 58.5389 112.243 56.8018 113.023 55.1575C113.602 53.9454 100.926 56.964 83.4859 64.0278C78.6763 65.981 78.9774 68.4669 79.8034 72.4504C80.9305 77.7078 86.5662 91.465 87.6933 93.642C88.5966 95.3713 90.2487 98.9071 94.2322 98.6755C100.022 98.3744 120.689 90.4845 124.341 88.7552C128.54 86.7248 129.312 85.2194 128.888 83.0424Z" fill="#0B4CB7"/>
<path d="M92.5104 35.7646C91.7383 34.4908 89.4995 36.2201 88.5268 35.2397C87.9941 34.7147 89.1212 33.742 88.4496 32.1516C87.2453 29.5191 83.115 30.8778 84.165 33.7342C84.6127 35.2319 85.8942 35.2319 85.8942 35.9885C85.9637 37.1851 82.9606 37.4862 83.4856 39.146C84.2576 42.373 89.1984 39.918 91.0821 38.9916C92.2556 38.3972 93.4059 37.3472 92.5104 35.7646Z" fill="#0B4CB7"/>
<path d="M15.3175 20.5866C16.8035 20.5008 18.2722 20.2231 19.6871 19.7605C21.3469 21.1115 24.0489 22.6864 25.3999 22.6864C27.1755 22.5668 28.9233 22.1869 30.5878 21.5593C31.3439 21.2838 32.0165 20.8186 32.541 20.2083C33.8997 18.7801 35.9224 16.9736 35.9996 15.6998C36.0768 14.4259 35.4592 8.95241 34.1236 7.65544C32.4943 6.34696 30.6977 5.26172 28.7813 4.42845C27.9348 3.96082 26.9615 3.77428 26.0021 3.89576C24.5268 4.02965 23.0683 4.30893 21.648 4.72953C20.8219 5.02289 19.2393 6.82939 18.035 8.48148C16.6299 8.67371 15.2465 9.00182 13.9047 9.46193C8.77859 11.0368 9.65096 20.2083 15.3175 20.5866ZM25.0139 21.1887C23.5996 20.5523 22.2412 19.7983 20.9531 18.9345C22.0988 18.7029 23.2097 18.3246 24.2573 17.8073C25.7505 18.8967 27.3367 19.8526 28.9975 20.6638C27.4071 21.0343 25.4617 21.4126 25.0139 21.1887ZM27.0443 5.92614C27.5692 5.40117 28.2409 5.70226 28.6964 5.92614C30.2538 6.67793 31.7156 7.61358 33.0505 8.71309C33.8225 9.43877 34.5173 14.0477 34.4787 15.5454C34.4787 16.1475 32.7571 17.954 30.7962 19.6061C29.8235 19.6061 26.0638 17.2901 24.9367 16.3791C24.4117 15.777 23.2074 11.3379 23.5085 10.3652C23.6552 9.68582 25.6161 7.28487 27.0443 5.92614ZM22.1575 6.1809C23.2595 5.8451 24.3922 5.6201 25.5389 5.50926C20.0731 11.3379 24.3577 8.64361 18.8456 10.0178C19.826 8.49692 21.6248 6.36618 22.1575 6.1809ZM21.9336 11.0677C22.0924 12.982 22.5482 14.8598 23.2846 16.6339C22.036 17.1486 20.7443 17.5516 19.4246 17.8382C18.7675 15.8857 18.3148 13.8702 18.0736 11.8243C19.3319 11.4381 20.6246 11.1744 21.9336 11.0368V11.0677ZM12.6077 12.0482C13.3798 10.9287 15.3175 10.6199 16.8924 10.3961C16.6301 10.8655 16.5247 11.4065 16.5913 11.9401C16.6685 12.7661 17.4946 17.2746 18.2511 18.6334C17.7184 18.7029 17.1935 18.8573 16.5218 19.0039C15.6881 18.5562 15.1631 17.2052 14.9778 16.4486C14.8311 16.078 14.7539 15.777 14.2984 15.9236C13.4724 16.1475 13.6268 17.5757 14.3756 18.9345C12.2835 18.0158 10.9634 14.4028 12.6077 12.0173V12.0482Z" fill="#0B4CB7"/>
<path d="M73.9428 46.3636C74.6144 46.2864 75.1471 45.3909 75.8188 45.5375C76.7992 45.7614 77.626 45.9853 78.2282 44.5648C79.5329 41.94 77.6415 42.4264 76.6842 44.2637C74.4068 43.3064 72.0753 46.3636 73.9436 46.3636H73.9428Z" fill="#0B4CB7"/>
<path d="M14.8615 15.0206C15.6335 15.0978 15.5408 13.3685 15.6875 12.1642C15.8419 10.736 14.6376 11.1914 14.3365 12.0175C14.0354 12.8435 13.9659 14.8739 14.8615 15.0206Z" fill="#0B4CB7"/>
<path d="M69.2798 47.7918C71.511 51.9375 75.8188 51.3276 80.027 49.22C81.1541 48.6951 82.5128 47.9462 81.6868 47.676C79.8494 46.8422 73.4649 52.2695 70.6316 47.151C69.435 44.8968 65.6754 35.9492 64.9188 33.4711C64.1468 30.8385 64.9188 28.9548 67.2348 27.9049C70.3228 26.5539 83.9256 22.3465 87.307 21.2193C90.6884 20.0922 88.5808 19.7911 84.991 20.6172C81.4011 21.4432 69.8056 25.1257 66.6481 26.4767C63.645 27.8277 62.5178 30.4603 63.4906 33.8416C64.1699 36.4433 68.0068 45.4604 69.2806 47.7918H69.2798Z" fill="#0B4CB7"/>
<path d="M74.6145 29.6808C76.6371 28.9629 75.2938 28.1368 73.2635 28.8548C70.6309 29.758 66.8018 30.7308 68.3767 34.5676C70.1832 38.999 70.8625 41.9326 73.6417 41.7087C74.4678 41.6315 76.5677 41.176 76.6449 40.35C76.7221 39.5239 75.2166 40.0489 74.2439 40.2805C72.2907 40.7283 71.5342 38.6979 69.6119 34.1893C68.4616 31.5722 70.2063 31.2403 74.6145 29.6808Z" fill="#0B4CB7"/>
<path d="M104.461 39.4467C103.033 39.3387 102.578 39.5239 102.053 40.1261C101.898 40.2805 101.45 40.2033 101.149 40.2033C100.64 40.2307 100.159 40.4451 99.7983 40.8055C98.2543 40.35 97.6212 41.3304 96.7875 42.2337C96.3938 42.8281 95.56 40.0643 93.105 43.0597C90.843 40.543 90.5342 44.2177 89.7236 44.5651C89.1986 44.789 87.9248 43.963 87.2455 43.7314C86.5661 43.4998 85.8945 43.8086 86.5661 44.5651C87.3456 45.4327 88.4175 45.9824 89.5769 46.1092C90.8507 46.1092 91.6073 44.6809 91.6768 43.8549C93.7303 46.7808 94.3402 42.4035 95.3593 43.3994C96.6948 44.7041 97.243 43.7777 98.594 42.4267C98.8951 42.1256 99.366 42.3495 99.945 42.2723C100.524 42.1951 100.918 41.7473 101.149 41.6006C101.52 41.369 102.13 41.7473 102.801 41.3768C103.473 41.0062 103.404 40.3191 104.832 40.3963C105.889 40.5044 105.967 39.5625 104.461 39.4467Z" fill="#0B4CB7"/>
<path d="M95.8918 28.8547C96.7874 28.9242 97.2429 27.5732 97.5439 26.8244C99.088 28.0982 100.176 28.0287 101.149 26.2222C103.558 26.7472 103.465 25.8439 102.693 25.3189C101.149 24.3462 100.215 24.6473 99.3813 26.2222C97.4281 24.794 96.9804 25.0951 95.8532 27.2721C95.5116 26.9692 95.0962 26.7615 94.6489 26.67C94.2011 26.6005 93.8229 27.0482 93.9773 27.3493C94.1254 27.7531 94.3829 28.1078 94.721 28.3736C95.0591 28.6394 95.4645 28.806 95.8918 28.8547Z" fill="#0B4CB7"/>
<path d="M111.556 36.598C110.954 34.4904 109.526 29.9819 108.545 27.3339C107.418 24.2459 106.229 19.7451 99.2269 20.6483C93.0509 21.4203 84.497 24.5084 80.6988 26.1296C77.5412 27.4806 76.3446 30.4142 77.7729 34.5522C84.7981 55.0335 83.7019 53.0418 108.059 45.0746C111.556 43.8857 112.722 40.7282 111.556 36.598ZM90.7117 48.9501C87.7781 49.8534 85.3771 48.4251 84.0184 46.1709C82.0652 43.0134 79.8882 36.5517 79.2088 34.2202C78.1589 30.6844 78.8382 28.5846 81.3936 27.5269C84.4816 26.1759 94.7725 21.8913 101.08 21.8913C105.364 21.8913 106.19 25.2726 107.094 27.828C107.997 30.3833 109.502 34.8996 110.105 36.9994C111.077 40.458 110.251 42.7123 107.472 43.6927C105.056 44.5651 93.9387 47.9465 90.7117 48.9192V48.9501Z" fill="#0B4CB7"/>
<path d="M59.584 116.794C61.4986 122.075 86.0569 128.668 94.2324 124.159C98.216 120.554 92.1326 114.841 78.2287 113.181C64.626 111.529 58.6429 114.177 59.5847 116.794H59.584ZM86.1958 116.64C88.5119 117.466 89.5772 119.419 86.6436 118.369C80.8536 116.493 69.8061 116.192 65.8998 116.941C62.4412 117.62 62.8117 115.737 67.4052 115.065C72.3615 114.308 81.0852 114.911 86.1958 116.64Z" fill="#0B4CB7"/>
<path d="M140.684 46.5879C145.725 41.0294 143.919 34.4905 137.828 34.4905C133.095 34.4905 130.617 37.9491 125.128 44.7119C122.812 38.1344 118.952 25.4117 115.354 16.4487C111.672 7.28498 103.002 8.72863 100.177 9.16096C77.2327 13.1291 22.3816 28.6233 16.7459 31.4797C11.4809 34.1894 10.3537 39.9718 11.1103 44.488C11.9363 49.5215 15.0166 60.4222 17.047 65.9112C8.02226 69.9643 6.56317 87.2418 19.5252 92.2135C21.2545 93.1939 23.8098 94.1667 26.1413 95.2243C27.4151 99.2079 28.0944 101.161 29.5999 105.067C28.8279 106.573 23.887 119.126 23.9565 124.236C24.1032 131.184 34.1701 131.045 33.7301 126.19C33.5834 124.236 31.7769 123.032 29.4455 122.955C27.114 122.878 27.1912 124.306 28.3183 124.306C29.7465 124.236 31.6457 124.669 32.2247 125.587C33.3981 127.44 30.2715 128.444 28.6966 128.066C27.2684 127.618 25.4619 126.56 25.4619 124.306C25.4619 120.446 28.9977 110.024 30.5726 106.496C31.4758 104.465 35.9072 104.18 37.6365 106.117C39.3658 108.055 35.0116 122.808 34.6334 124.236C34.2551 125.665 35.6061 125.433 36.1774 124.082C36.7356 122.613 37.1896 121.106 37.5361 119.573C39.5588 121.527 42.5696 122.206 45.5032 122.353C47.2325 122.43 51.8877 121.303 53.9953 120.701C53.0148 125.665 52.266 131.447 51.6793 135.508C49.8033 149.257 91.0516 155.356 94.3713 146.107C94.5179 145.652 94.819 144.749 95.1433 143.552C101.458 140.317 100.03 131.3 98.4552 128.745C100.316 118.662 100.671 114.023 89.3609 109.352C102.585 104.612 126.641 95.896 129.721 94.3211C140.723 89.442 138.013 82.4476 129.42 56.6626C130.038 56.0372 137.928 49.4752 140.684 46.5879ZM12.9091 44.2719C12.3069 40.3578 13.2102 35.4015 17.5411 33.2167C23.7789 30.0438 80.3516 14.4724 100.516 11.0447C103.527 10.5197 110.553 9.39256 113.641 17.2825C115.957 23.0725 120.928 37.2775 123.785 46.4489C123.414 46.8272 123.113 47.275 122.735 47.7227C121.191 41.0371 113.787 21.266 112.436 17.6608C110.259 11.8707 104.546 12.3262 100.084 13.2294C80.838 17.3597 37.621 28.3376 22.2118 34.7993C16.6533 37.1153 16.6533 42.0871 18.0043 47.3522C18.9076 50.7336 22.4356 61.1788 23.115 62.5298C19.4325 66.5906 22.9297 64.6142 18.6837 65.4634C16.8154 59.9668 13.6656 49.0737 12.9091 44.2641V44.2719ZM31.6997 61.4027C40.5701 63.5875 57.7086 72.9828 62.3638 75.0132C65.1508 76.6653 66.2779 77.4913 66.9959 79.8923C67.8219 82.602 66.2239 88.616 62.4102 91.0941C58.5965 93.5722 28.4419 80.147 24.4583 77.7924C29.4841 76.534 34.8341 67.6328 31.6997 61.395V61.4027ZM20.0501 76.3565C20.1659 76.812 22.3662 83.4049 23.8098 88.2299C23.2076 87.9289 22.5283 87.6278 21.9338 87.3267C16.8154 84.8485 14.7156 81.39 15.6188 77.1053C16.2905 74.1022 17.3481 72.2185 18.923 71.3925C18.7217 73.1272 19.1194 74.8787 20.0501 76.3565ZM22.7599 78.5335C24.8242 79.8465 26.9842 81.0026 29.2216 81.9921C29.6693 83.3431 31.1748 87.6278 32.9813 92.6613C30.7956 91.3329 28.5085 90.179 26.1413 89.2104C25.8633 88.3843 23.362 80.5639 22.7753 78.5335H22.7599ZM29.9704 70.5664C26.674 77.6534 19.5329 78.9813 20.5751 70.8675C21.135 70.836 21.6958 70.912 22.2272 71.0914C22.7599 73.5772 25.9174 72.6354 27.2684 69.8176C28.7661 66.7295 27.0445 64.0275 24.7131 65.6101C24.1023 65.3945 23.4711 65.2419 22.8294 65.1546C28.6117 56.5776 33.6606 62.5375 29.9704 70.5664ZM32.7574 103.261C32.1474 103.348 31.5601 103.552 31.0281 103.863C30.2561 101.833 29.4455 99.3546 28.3955 96.3515C32.1475 98.2969 32.9967 99.3546 32.7574 103.261ZM36.7409 103.716C35.9466 103.394 35.1089 103.191 34.2551 103.114C35.0271 95.5949 28.851 95.2243 20.1273 90.8625C14.1906 87.9289 10.0526 83.1424 11.7047 75.5304C13.4109 67.6791 19.5483 65.0157 24.9369 67.4089C26.1413 67.9339 25.4619 70.3425 24.0337 70.1187C23.4248 69.8895 22.7971 69.7139 22.1577 69.5937C18.2977 69.0147 15.4644 71.1377 14.2601 76.8042C13.1329 82.2083 16.1438 86.1996 21.4011 88.7549C33.7301 94.6917 37.1887 94.545 36.7409 103.716ZM35.0811 94.3211C34.78 93.5491 31.8541 85.2268 31.0976 82.9726C41.9057 87.8517 57.4848 93.2634 60.7118 93.1167C66.6485 92.8929 69.6593 83.4975 68.4318 79.5835C67.4514 76.4954 65.7298 75.4532 63.0973 73.8783C57.3844 71.3925 35.8145 59.3723 28.4496 59.5962C26.9177 59.6923 25.4627 60.3015 24.3193 61.3255C20.3589 49.4134 14.924 39.3773 22.8294 36.1426C38.6941 29.6037 81.085 18.8574 100.401 14.7194C106.337 13.4456 109.418 14.4955 111.07 18.2552C112.876 22.4626 120.465 45.2755 121.747 48.9965C116.412 55.2344 110.02 62.5221 107.766 63.0548C102.578 64.1819 97.992 61.0939 92.4335 66.9611C89.1216 70.2653 88.0717 78.5413 91.6075 80.2628C93.2133 81.1584 95.8844 75.9087 98.6713 73.1218C99.5823 71.9097 100.215 72.7049 103.929 73.5772C104.477 73.7085 104.207 73.4692 105.658 78.1553C106.337 79.2824 103.859 81.0117 102.354 82.5171C97.7218 87.3267 98.0692 88.9788 104.16 89.2799C107.542 89.4343 110.336 87.9289 112.575 85.1496C117.007 79.8151 114.227 74.8511 115.208 70.0415C115.432 68.8371 120.612 64.4058 125.506 60.1984C128.062 67.2622 130.617 76.4105 132.045 82.216C132.941 85.9757 131.891 87.5506 129.86 88.7549C117.161 94.159 96.4171 100.929 79.9579 106.797C70.2615 105.067 59.8857 105.832 56.7977 110.255C56.2792 111.251 55.8999 112.314 55.6705 113.413C42.2145 118.122 41.3035 110.85 38.393 103.454C38.6941 99.1307 37.3354 96.3515 35.0811 94.3211ZM48.3905 120.098C45.4569 120.778 40.3462 120.477 38.0147 117.319C38.6169 114.54 39.1419 111.83 39.443 110.325C41.6972 115.59 45.233 116.269 47.7112 116.269C50.243 116.227 52.7531 115.795 55.1533 114.988C54.9294 116.038 54.6283 117.165 54.3813 118.446C52.4221 119.126 50.421 119.678 48.3905 120.098ZM92.9585 145.505C91.5303 152.044 52.3664 148.717 53.2001 135.508C53.5784 129.409 55.6783 119.419 56.8826 114.308C57.7086 116.864 61.4683 119.573 66.2779 121.828C65.8708 122.048 65.5198 122.359 65.252 122.736C64.9843 123.114 64.807 123.548 64.7339 124.005C64.5332 125.286 64.7339 127.927 65.2589 128.637C65.6989 129.247 67.6675 130.065 68.7947 130.443C71.5276 138.488 82.8684 147.034 93.2982 143.969C93.2386 144.491 93.1247 145.006 92.9585 145.505ZM95.7377 141.066C96.4171 138.364 97.2817 134.89 97.9225 131.524C99.1191 136.033 98.0692 139.19 95.7377 141.066ZM93.9389 142.193C86.435 145.551 74.0752 139.97 70.4854 130.397C71.3225 129.827 72.0987 129.173 72.8014 128.444C73.6274 127.618 73.3264 125.665 72.647 125.811C71.6743 125.958 72.7242 127.239 70.0222 128.969C69.945 128.59 69.8678 128.197 69.7906 127.919C70.9949 127.386 71.0721 124.985 69.5667 124.383C67.3896 123.557 66.4786 126.56 68.2929 127.687C68.3029 128.067 68.3523 128.445 68.4395 128.814C67.7748 128.607 67.1431 128.305 66.5636 127.919C66.2016 126.751 66.0989 125.518 66.2625 124.306C66.332 123.534 66.9341 123.179 68.0613 122.577C73.7741 124.893 80.6913 126.437 86.1031 126.19C91.8159 126.035 95.7995 125.062 97.9071 122.577C97.2431 127.988 95.2128 137.083 93.9389 142.193ZM97.8453 119.033C97.1351 129.656 59.2449 124.051 57.6314 111.514C62.1477 102.435 97.8453 108.858 97.8453 119.048V119.033ZM128.957 92.4991C124.626 94.7148 87.346 107.808 86.8674 108.287C85.5163 107.831 84.0881 107.453 82.6599 107.082C98.7486 101.447 118.589 94.8306 130.524 89.7199C132.624 88.4384 134.585 86.4852 133.381 81.5289C131.953 75.5845 129.243 66.0425 126.618 58.8242C127.066 58.4536 127.444 58.0522 127.892 57.7743C136.5 83.7137 138.059 88.5079 128.957 92.5146V92.4991ZM113.324 69.2772C112.197 73.9092 115.131 78.8192 111.07 83.706C110.034 85.0538 108.636 86.0798 107.04 86.6647C105.444 87.2496 103.714 87.3694 102.053 87.0102C101.451 86.8635 100.509 86.7323 101.605 85.6592C104.045 83.2968 108.159 80.1161 107.31 77.4682C105.241 70.937 106.685 72.2571 99.8757 70.4043C97.6214 69.7558 97.3126 71.6935 92.4335 77.5454C92.1247 77.9082 91.6615 78.3714 91.3759 77.3138C90.9952 75.6968 91.0067 74.0122 91.4096 72.4006C91.8125 70.7891 92.595 69.2972 93.6919 68.0497C98.7331 62.6456 102.786 66.0965 108.198 64.5911C111.355 63.6878 118.35 55.273 126.842 45.5765C131.428 40.3887 132.856 36.8529 137.812 36.3125C139.842 36.0886 143.525 39.1689 140.221 44.0325C137.032 48.8113 114.189 65.5561 113.324 69.2926V69.2772Z" fill="#001434"/>
<path d="M98.6714 80.1865C101.682 81.3136 102.624 80.6574 104.16 78.4572C104.685 77.6852 104.384 77.4845 103.628 75.153C103.334 74.1725 103.18 74.3269 101.373 73.802C100.401 73.5009 99.4202 73.277 98.2159 74.7747C97.0116 76.2724 96.8649 76.2029 97.166 77.1834C97.9225 79.5226 97.8453 79.8854 98.6714 80.1865Z" fill="#001434"/>
<path d="M137.751 39.3776C135.35 38.4744 133.891 41.3694 135.952 42.6046C138.152 43.917 140.159 40.3504 137.751 39.3776Z" fill="#001434"/>
<path d="M93.638 128.514C88.6894 130.645 80.3286 129.417 76.5689 128.445C76.1983 128.367 75.7969 128.591 76.1211 128.969C77.835 131.409 94.0317 132.521 94.5335 128.668C94.5721 128.221 94.0085 128.36 93.638 128.514Z" fill="#001434"/>
</svg>
