<svg width="155" height="155" viewBox="0 0 155 155" fill="none" xmlns="http://www.w3.org/2000/svg">
<path d="M135.263 61.5572C131.048 68.7832 142.482 76.8275 147.376 68.5593C152.085 60.6231 139.625 54.1073 135.263 61.5572Z" fill="#0B4CB7"/>
<path d="M13.1243 105.716C12.939 105.757 12.7751 105.864 12.664 106.018C12.5529 106.172 12.5024 106.361 12.5221 106.55C12.9004 109.785 14.483 112.726 18.2427 113.544C20.3503 113.992 20.6514 112.865 19.7481 112.564C16.0579 111.29 14.6297 109.707 14.0276 107.075C14.9904 107.013 15.9521 107.21 16.8128 107.646C17.6736 108.082 18.4019 108.74 18.9221 109.553C21.2304 113.274 21.5237 104.203 13.1243 105.716Z" fill="#0B4CB7"/>
<path d="M18.2043 128.891C18.7292 133.106 17.5249 141.151 20.914 141.305C33.8529 141.83 31.7221 141.676 32.193 128.814C35.5822 129.192 35.2039 127.309 35.6594 124.676C35.9604 123.395 35.806 122.36 33.9995 122.267C31.8997 122.121 19.1847 121.966 16.2434 122.267C13.6803 122.569 14.9155 126.174 15.1085 127.463C15.3865 129.185 16.6989 128.814 18.2043 128.891Z" fill="#0B4CB7"/>
<path d="M85.6081 55.6126C87.8701 55.767 88.8197 55.6975 88.5418 54.4083C87.7003 50.4401 83.1995 49.0042 80.5669 48.9193C80.4455 48.9151 80.3247 48.9396 80.2145 48.9907C80.1042 49.0419 80.0076 49.1183 79.9324 49.2138C79.8572 49.3093 79.8056 49.4212 79.7817 49.5403C79.7578 49.6595 79.7623 49.7826 79.7949 49.8997C80.3894 51.768 82.3039 55.3887 85.6081 55.6126ZM86.8897 54.1844C84.481 54.5627 82.4506 52.5323 81.7018 50.5019C83.377 50.8725 85.9092 51.8529 86.8897 54.1844Z" fill="#0B4CB7"/>
<path d="M23.9942 112.116C30.3169 108.727 31.1352 104.156 30.3941 100.227C30.1393 98.8759 29.1126 99.2465 28.3637 99.4549C23.1681 101.184 19.5551 106.828 21.9638 111.568C22.7204 113.019 23.3225 112.486 23.9942 112.116ZM27.4605 101.578C29.3365 100.528 29.0045 101.655 29.0045 102.558C29.0045 105.114 28.1784 107.453 24.2644 110.232C23.7394 110.61 23.2916 111.058 23.1372 109.63C22.7204 105.947 24.2258 103.384 27.4605 101.578Z" fill="#0B4CB7"/>
<path d="M143.763 51.0268C141.81 51.405 140.081 52.9105 139.849 54.2615C139.633 55.4426 144.188 57.6351 150.086 54.2615C152.086 53.0571 146.921 50.3474 143.763 51.0268ZM141.81 54.0376C143.462 51.7756 145.794 52.0767 148.28 53.5126C146.249 54.2615 143.84 55.0103 141.81 54.0376Z" fill="#0B4CB7"/>
<path d="M70.1911 96.6138C74.3291 95.6411 76.8072 93.5258 77.7877 90.2988C78.3127 88.5695 78.8376 87.5119 77.1083 87.288C71.4649 86.6858 66.6862 89.9437 68.0836 96.0117C68.2225 96.6216 68.7089 96.9921 70.1911 96.6138ZM76.6606 88.7162C75.8886 91.5726 73.6497 94.2824 69.4346 95.1084C68.9868 90.0749 72.5689 88.639 76.6606 88.7162Z" fill="#0B4CB7"/>
<path d="M76.9615 24.0913C75.3017 28.3065 76.3594 32.9694 81.3234 34.1737C82.9755 34.5906 83.3538 26.2066 78.0887 23.7208C77.6332 23.5046 77.2009 23.3425 76.9615 24.0913ZM80.7212 32.5216C77.8648 31.5412 77.1854 28.1598 77.9343 25.2957C79.0332 26.1145 79.8781 27.2275 80.3713 28.5062C80.8644 29.7848 80.9857 31.1769 80.7212 32.5216Z" fill="#0B4CB7"/>
<path d="M87.6394 27.7816C86.1417 27.4033 86.2112 28.0826 86.1417 28.8315C85.7634 32.2206 88.9981 36.5516 93.0898 36.5516C93.5452 36.5516 94.1389 36.4744 94.2161 35.8722C94.6407 32.3673 91.1752 28.6076 87.6394 27.7816ZM87.6394 29.3256C89.4459 30.1593 92.6103 32.0353 92.6798 35.0462C89.5995 35.1465 87.7166 31.8423 87.6394 29.3565V29.3256Z" fill="#0B4CB7"/>
<path d="M104.947 40.3426C100.052 34.9385 91.6299 41.7013 96.9722 47.6381C101.905 52.4554 109.533 45.6849 104.947 40.3426Z" fill="#0B4CB7"/>
<path d="M57.7774 78.3328C49.4243 82.6251 55.2915 95.7879 64.5479 91.2021C73.6499 86.6859 66.1228 74.0481 57.7774 78.3328Z" fill="#0B4CB7"/>
<path d="M132.476 14.4644C124.532 11.8782 121.583 20.818 123.753 20.7871C128.045 20.7099 131.65 18.4711 132.932 15.4448C132.999 15.2543 132.989 15.0449 132.904 14.8616C132.819 14.6782 132.665 14.5356 132.476 14.4644ZM124.656 19.2045C125.25 16.7495 127.42 15.0511 131.125 15.6687C129.998 17.5524 127.59 18.9343 124.656 19.2045Z" fill="#0B4CB7"/>
<path d="M59.653 122.121C59.8074 128.135 60.1085 134.473 60.1857 136.341C60.2551 138.596 60.6334 140.703 62.4399 140.973C65.8136 141.332 69.2143 141.356 72.5918 141.043C75.3633 140.672 75.1858 139.854 75.9037 122.167C77.1853 122.167 78.1657 122.167 78.2198 120.662C78.2738 119.157 80.8523 112.17 77.3165 112.17C56.9896 112.17 55.5691 111.081 56.1017 114.81C56.4183 117.304 56.1172 123.024 59.653 122.121Z" fill="#0B4CB7"/>
<path d="M59.2827 100.304C60.3326 100.304 64.9955 99.3237 64.1695 97.6716C60.6337 90.6695 53.9404 94.2825 52.9599 94.738C51.277 95.3633 54.5426 100.304 59.2827 100.304ZM62.5174 97.8955C59.3522 99.702 56.4957 98.7988 54.311 95.9424C56.7196 94.8075 59.7304 94.2825 62.5328 97.8955H62.5174Z" fill="#0B4CB7"/>
<path d="M121.723 19.4286C123.599 15.5686 122.626 14.0246 119.692 10.8516C119.013 10.0796 118.411 10.4039 118.148 12.6581C117.345 17.7688 120.912 20.6407 121.723 19.4286ZM119.538 12.6581C121.344 14.1636 121.645 15.669 120.742 17.9232C118.936 16.2711 119.314 14.3874 119.538 12.6581Z" fill="#0B4CB7"/>
<path d="M128.269 69.8332C128.448 69.8264 128.62 69.7613 128.758 69.6478C128.897 69.5344 128.994 69.3788 129.036 69.2048C129.063 69.089 129.065 68.9694 129.041 68.8528C127.613 63.966 123.776 62.3834 120.549 62.4606C118.65 62.5069 119.144 69.8332 128.269 69.8332ZM127.212 68.2892C124.957 68.0576 121.267 66.9305 121.267 63.9969C122.555 64.0893 123.792 64.5364 124.841 65.2886C125.89 66.0407 126.711 67.0686 127.212 68.2583V68.2892Z" fill="#0B4CB7"/>
<path d="M131.805 24.9257C126.463 18.2246 116.156 25.6977 122.023 32.8928C127.512 38.8372 136.846 31.3951 131.805 24.9257Z" fill="#0B4CB7"/>
<path d="M116.527 57.1178C119.337 54.6628 112.836 53.4276 109.579 54.2614C107.394 54.8635 106.12 56.2917 106.12 57.1178C105.919 58.3067 111.509 61.5414 116.527 57.1178ZM115.176 56.0679C113.068 57.9438 109.988 58.6232 107.656 56.8939C109.455 55.1646 112.466 55.1646 115.176 56.0679Z" fill="#0B4CB7"/>
<path d="M100.052 17.0971C93.058 12.3569 85.9092 22.4394 93.2124 27.4034C99.9829 32.0586 106.9 21.6828 100.052 17.0971Z" fill="#0B4CB7"/>
<path d="M121.422 36.9608C117.129 36.9608 114.798 37.2619 113.894 41.5929C113.671 42.7972 115.778 42.6582 116.458 42.72C119.607 43.0056 120.897 40.4657 122.101 37.9799C122.549 37.1075 121.977 36.9608 121.422 36.9608ZM115.554 41.1683C116.326 38.914 117.361 38.389 120.186 38.389C119.237 40.4194 118.117 41.5465 115.554 41.1683Z" fill="#0B4CB7"/>
<path d="M93.2123 78.7111C104.87 74.7275 98.7785 57.1952 87.0363 61.256C75.294 65.3167 80.7984 82.9262 93.2123 78.7111Z" fill="#0B4CB7"/>
<path d="M84.4038 42.0949C85.3071 34.1973 73.1248 33.5179 72.3682 40.9678C71.6966 48.1706 83.5778 50.3477 84.4038 42.0949Z" fill="#0B4CB7"/>
<path d="M105.696 18.981C107.579 14.6886 106.977 10.705 103.441 8.67465C102.384 8.07249 101.897 8.97574 101.635 11.0756C101.411 12.8821 101.635 16.1168 103.441 18.4483C104.947 20.4786 105.317 19.807 105.696 18.981ZM103.217 10.3267C104.869 11.5311 106.22 13.6387 104.715 17.7766C102.314 14.9125 102.916 13.1137 103.217 10.3267Z" fill="#0B4CB7"/>
<path d="M74.3987 55.9136C69.5891 55.0103 68.3075 57.4962 67.1804 59.0788C65.6364 61.3948 67.1032 61.3331 69.2108 61.3948C75.1475 61.5647 75.8964 55.9136 74.3987 55.9136ZM68.4619 59.9049C69.288 58.3994 70.114 56.894 73.4954 57.2723C73.1943 59.681 70.5618 60.0515 68.4619 59.9049Z" fill="#0B4CB7"/>
<path d="M115.477 14.8426C115.477 14.7412 115.457 14.6407 115.419 14.5469C115.38 14.4532 115.323 14.368 115.251 14.2963C115.18 14.2245 115.094 14.1677 115.001 14.129C114.907 14.0902 114.806 14.0704 114.705 14.0706C111.393 14.0011 108.83 15.7304 107.332 19.5673C106.877 20.7716 108.004 21.065 109.062 21.065C113.292 21.011 115.554 18.4556 115.477 14.8426ZM113.933 15.6146C113.856 18.4711 111.98 19.6754 108.815 19.6059C109.834 17.699 111.416 15.8926 113.972 15.5915L113.933 15.6146Z" fill="#0B4CB7"/>
<path d="M100.361 35.4553C99.5041 36.8603 103.071 37.7095 103.897 37.7095C104.862 37.6647 105.808 37.4216 106.675 36.9952C107.543 36.5689 108.313 35.9685 108.938 35.2314C110.003 33.8263 103.573 30.1979 100.361 35.4553ZM107.309 34.7759C106.182 35.7564 104.221 36.8835 102.114 35.6791C103.588 33.8727 105.472 33.7955 107.309 34.7759Z" fill="#0B4CB7"/>
<path d="M100.956 56.8942C101.558 53.9606 100.13 51.4052 96.3698 49.0738C96.2584 49.0149 96.1342 48.9843 96.0082 48.9847C95.8822 48.9851 95.7583 49.0165 95.6472 49.0761C95.5359 49.1354 95.4409 49.2211 95.3703 49.3257C95.2998 49.4302 95.256 49.5505 95.2427 49.6759C95.0883 51.4052 94.4089 56.817 99.8747 57.396C100.431 57.535 100.886 57.535 100.956 56.8942ZM99.6817 55.8443C97.1959 55.2421 96.6709 53.2812 96.6709 51.0269C98.8171 52.5324 99.8284 54.1072 99.6817 55.8443Z" fill="#0B4CB7"/>
<path d="M100.731 107.754C101.11 109.785 102.538 109.105 104.422 109.252C104.568 117.682 104.947 132.505 105.016 135.886C105.093 138.295 105.394 140.518 107.124 140.85C110.324 141.216 113.554 141.242 116.758 140.927C118.302 140.703 119.012 140.024 119.236 135.886C119.46 131.447 120.008 115.953 120.062 109.252H121.722C124.432 109.483 124.355 103.763 124.656 101.733C124.88 100.15 124.656 99.1 122.247 98.9456C119.839 98.7912 105.093 98.7989 102.237 98.9456C100.731 99.0228 99.6814 99.2466 99.8281 101.354C99.9748 103.462 100.507 106.697 100.731 107.754Z" fill="#0B4CB7"/>
<path d="M141.356 29.2873C141.294 28.6079 140.908 28.5153 140.53 28.6079C136.917 29.2101 134.809 31.1633 134.137 34.6991C133.983 35.3012 134.585 35.6023 135.11 35.6023C139.402 35.2317 141.749 33.6028 141.356 29.2873ZM139.927 30.26C139.927 32.8926 138.499 33.873 135.789 34.12C136.043 33.1507 136.566 32.2733 137.299 31.5899C138.031 30.9065 138.943 30.4453 139.927 30.26Z" fill="#0B4CB7"/>
<path d="M72.669 53.675C77.0309 53.3739 70.1909 46.0785 69.2876 44.4958C67.5583 41.4001 64.6247 54.2617 72.669 53.675ZM68.7086 46.4413C69.913 48.3945 71.8661 50.0466 72.3911 52.1542C69.1332 52.2314 67.9366 48.9967 68.7086 46.4413Z" fill="#0B4CB7"/>
<path d="M126.007 44.7044C117.361 46.9664 120.364 59.7508 129.474 57.4194C137.896 55.2191 134.507 42.4502 126.007 44.7044Z" fill="#0B4CB7"/>
<path d="M143.238 42.751C142.034 40.0413 139.78 36.5055 134.746 36.961C134.558 36.984 134.385 37.0754 134.26 37.2177C134.135 37.36 134.066 37.5434 134.067 37.733C134.067 40.3655 135.943 43.6774 142.119 43.8241C142.636 43.8164 143.686 43.8009 143.238 42.751ZM135.642 38.3892C138.043 38.3892 139.849 39.5163 141.278 42.1488C137.672 41.5467 136.012 39.9641 135.642 38.3892Z" fill="#0B4CB7"/>
<path d="M135.186 45.4606C134.962 47.3366 135.109 50.0463 137.819 51.8528C137.908 51.9374 138.015 52.0014 138.132 52.0405C138.248 52.0796 138.372 52.0927 138.494 52.079C138.617 52.0649 138.734 52.0241 138.839 51.9597C138.943 51.8953 139.033 51.8088 139.1 51.7062C142.188 48.5255 139.178 43.9861 136.391 43.2758C135.487 43.052 135.341 44.2563 135.186 45.4606ZM136.73 44.8584C138.382 46.0628 139.741 48.5409 138.382 50.5018C136.167 48.9192 136.645 46.966 136.769 44.8584H136.73Z" fill="#0B4CB7"/>
<path d="M82.6043 44.4808C82.9902 44.1198 83.2862 43.6733 83.4685 43.1773C83.6508 42.6813 83.7144 42.1494 83.6542 41.6244C83.577 38.8374 81.5466 38.4669 81.8477 39.4396C82.3434 40.9484 82.3162 42.5802 81.7705 44.0717C81.6238 44.558 82.0716 44.8591 82.6043 44.4808Z" fill="#001434"/>
<path d="M65.8212 144.911C72.3678 144.316 79.1383 146.949 79.6633 138.372C79.8949 135.963 80.4353 129.193 80.7981 122.793C82.1492 122.793 82.7513 121.82 83.0524 120.238C83.9557 115.351 86.5882 107.978 80.7364 107.978C78.706 107.978 72.6071 107.824 66.4388 107.824C67.4965 103.964 67.4965 95.3403 65.991 93.2328C65.4661 92.4607 64.5628 92.7078 64.8639 93.8349C65.9138 98.1968 65.3117 103.099 64.4856 107.731C58.3096 107.731 52.5272 107.801 50.8674 107.878C47.7099 107.955 46.5056 109.761 47.0074 112.394C48.3661 120.292 48.2117 122.7 50.7671 122.77C50.9987 128.645 51.3692 134.512 51.6008 137.368C51.3769 146.316 57.7769 144.61 65.8212 144.911ZM77.7873 138.372C77.409 142.433 76.3591 142.734 74.0276 142.958C68.2152 143.35 62.3819 143.324 56.5726 142.881C53.7856 142.734 53.4845 140.101 53.415 137.392C53.2606 134.535 52.8824 128.815 52.5813 123.025C56.5726 123.094 71.6962 122.947 78.8295 123.094C78.5362 129.417 78.0112 136.041 77.7873 138.372ZM50.1031 119.713C49.5047 117.314 49.0765 114.876 48.8216 112.417C48.6749 110.387 48.8216 110.008 50.9292 109.931C54.7892 109.746 77.2932 109.707 80.5665 109.931C82.8285 109.931 83.338 109.785 81.2459 120.014C80.8676 121.789 81.2922 121.218 52.0563 121.218C50.7748 121.218 50.5509 121.218 50.1031 119.713Z" fill="#001434"/>
<path d="M60.0307 87.2111C59.1274 87.0644 59.2046 88.1915 60.3317 88.6393C60.7019 88.7927 61.1069 88.8427 61.5032 88.7838C61.8996 88.7249 62.2725 88.5594 62.5821 88.305C62.8915 88.0503 63.1257 87.7162 63.2597 87.3385C63.3937 86.9608 63.4223 86.5538 63.3426 86.1611C62.8871 83.9763 59.8068 84.4318 59.9535 83.2275C60.0847 82.5713 61.4048 82.9959 61.8372 82.8492C62.4393 82.7025 62.2154 81.3052 60.71 81.3052C57.8459 81.228 57.622 84.7638 60.71 85.5976C62.061 86.0067 62.1382 87.5893 60.0307 87.2111Z" fill="#001434"/>
<path d="M99.828 25.2965C101.557 23.5672 101.032 21.0118 100.43 21.1585C99.828 21.3052 100.129 22.8878 99.002 24.1693C97.458 25.9758 96.3694 25.752 96.215 26.2769C96.0606 26.8019 98.2454 26.9563 99.828 25.2965Z" fill="#001434"/>
<path d="M95.0881 18.5262C95.8601 18.1479 95.6903 17.5535 95.0109 17.5535C92.9419 17.5535 91.4442 19.8695 91.6295 21.8381C91.6203 21.9407 91.6513 22.0428 91.716 22.123C91.7479 22.1625 91.7875 22.1953 91.8323 22.2193C91.8771 22.2433 91.9263 22.258 91.9769 22.2627C92.0532 22.27 92.1299 22.2548 92.1976 22.2188C92.2653 22.1829 92.3209 22.1278 92.3575 22.0604C92.3817 22.0155 92.3967 21.9661 92.4015 21.9153C92.592 21.196 92.929 20.5237 93.3913 19.9405C93.8535 19.3573 94.4312 18.8759 95.0881 18.5262Z" fill="#001434"/>
<path d="M80.2882 39.5165C80.9753 39.9566 81.3459 38.8372 80.2188 38.0883C78.5589 37.1079 76.2275 38.8603 77.9027 41.1763C78.5744 42.1568 78.3505 42.759 77.7483 42.759C77.1462 42.759 77.069 42.3807 76.6212 42.5351C75.8492 42.6818 76.3124 44.0791 77.5245 44.2644C79.1688 44.5269 80.3809 42.5351 79.1766 40.5047C78.5358 39.5937 79.3001 38.8989 80.2882 39.5165Z" fill="#001434"/>
<path d="M58.3013 79.391C55.4448 80.5182 54.6111 84.0231 55.2904 86.1615C55.6687 87.2115 56.3481 86.9336 56.3481 86.3082C56.3481 84.8028 56.572 81.4214 59.5828 79.9932C60.5555 79.5377 60.1078 78.7117 58.3013 79.391Z" fill="#001434"/>
<path d="M116.225 62.7619C122.324 58.7783 130.299 62.9163 135.942 57.7207C137.216 56.5163 138.498 54.4088 137.896 53.5132C137.741 53.2122 137.293 53.2122 137.07 53.6599C131.874 64.4217 116.827 52.61 109.833 67.502C108.289 64.7923 104.267 62.87 101.109 60.9554C104.83 57.453 107.799 53.2291 109.833 48.5415C123.073 51.5523 121.869 38.5054 131.804 37.1081C134.043 36.7916 132.538 34.8847 128.716 36.4287C120.911 39.6017 121.568 48.5415 110.59 46.6655C113.678 38.4051 111.601 34.159 111.941 32.2908C112.62 26.354 118.958 26.6319 121.869 21.7606C122.494 20.7184 121.645 20.4868 120.742 21.5367C117.584 25.2192 112.018 25.5202 110.659 31.0941C109.007 28.3072 106.452 25.5202 106.676 22.3627C106.676 20.5871 104.298 21.0272 105.996 26.1224C107.285 30.1214 109.671 30.4997 110.512 35.8343C111.64 42.8287 106.375 54.1849 99.7044 60.0521C98.0081 59.1816 96.4477 58.0685 95.0723 56.7479C89.5062 51.6295 91.0888 41.6243 99.2103 36.282C99.6658 35.981 99.5114 35.0005 97.7049 35.9037C95.1495 37.1081 92.7409 40.0417 91.7604 42.0026C90.2164 37.4864 84.0867 34.3289 82.9595 35.456C82.9027 35.5244 82.8649 35.6066 82.8498 35.6943C82.8348 35.7819 82.8431 35.872 82.8738 35.9555C82.9039 36.0391 82.9555 36.1133 83.0234 36.1706C83.0913 36.228 83.1731 36.2664 83.2606 36.282C85.0839 36.9705 86.7136 38.0897 88.0108 39.5442C89.308 40.9987 90.2342 42.7453 90.7105 44.6352C90.0149 46.7388 89.8568 48.983 90.2505 51.1634C90.6443 53.3438 91.5773 55.391 92.9647 57.1185C86.9508 58.4772 81.1685 57.5045 76.5673 53.961C76.189 53.6676 74.9152 54.2621 77.0923 56.0686C81.7243 60.1293 90.2164 60.0521 94.5474 58.6239C98.5309 61.9358 103.039 63.6651 106.961 67.0542C112.975 72.0182 111.925 88.794 109.818 95.3406C103.95 95.3406 98.307 95.4101 96.2767 95.4101C93.7213 95.4101 91.4593 96.6144 91.9148 99.548C93.4588 109.121 93.1037 110.07 95.5973 110.611C95.8289 119.636 96.5005 135.06 96.7321 138.596C97.0332 143.228 98.4614 144.61 102.136 144.911C106.652 145.212 116.279 145.212 119.367 144.988C122.826 144.764 124.331 143.259 124.71 138.596C125.08 134.08 125.983 118.061 126.207 110.456C129.072 109.028 128.994 103.161 129.596 100.081C129.898 97.0699 128.392 95.3406 125.011 95.3406C123.351 95.3406 117.638 95.2634 111.539 95.2634C113.199 89.1723 114.627 77.2061 111.315 69.7871C111.717 67.2009 113.145 64.7923 116.225 62.7619ZM122.749 138.372C122.378 142.433 121.321 142.734 118.989 142.958C113.177 143.35 107.343 143.324 101.534 142.881C99.1254 142.657 98.6004 141.074 98.446 138.372C98.2144 134.836 97.6122 119.713 97.3189 110.58C101.951 110.657 122.741 110.58 124.246 110.58C123.976 118.362 123.15 133.964 122.749 138.372ZM124.934 97.2166C126.663 97.2552 128.022 97.4482 127.566 99.7024C127.188 101.81 127.041 108.804 124.331 108.804C95.1727 108.804 95.3271 109.345 94.9951 107.677C94.6246 105.794 94.0224 102.273 93.7213 99.4785C93.4974 97.5176 94.4933 97.2552 96.2767 97.2166C100.129 97.1471 121.043 97.1471 124.957 97.2166H124.934Z" fill="#001434"/>
<path d="M73.3404 41.702C73.4871 44.2573 75.7182 44.9444 75.1469 43.6552C74.2823 41.7174 74.8458 40.6443 74.9925 39.6639C75.2318 38.3901 73.2709 39.1389 73.3404 41.702Z" fill="#001434"/>
<path d="M63.8679 89.9981C64.7707 89.7015 65.556 89.1262 66.1109 88.3548C66.6659 87.5835 66.9617 86.6559 66.9559 85.7057C66.8015 83.2276 65.8983 83.4515 65.8211 84.3547C65.8364 85.2825 65.6351 86.2011 65.233 87.0374C64.8309 87.8737 64.2393 88.6046 63.5051 89.172C62.8875 89.6198 63.1885 90.2065 63.8679 89.9981Z" fill="#001434"/>
<path d="M90.8033 66.977C92.9418 67.749 92.6252 65.7495 90.8033 65.3172C90.271 65.1842 89.7097 65.2301 89.2061 65.4478C88.7024 65.6654 88.2843 66.0427 88.0164 66.5215C86.8892 68.9301 89.6916 70.9914 88.5413 71.7943C88.2117 72.0109 87.8201 72.1131 87.4267 72.0852C87.0333 72.0573 86.66 71.9008 86.3643 71.6399C85.3838 70.8679 85.0827 72.3193 85.8393 72.9909C86.3411 73.453 86.9984 73.7095 87.6805 73.7095C88.3627 73.7095 89.0199 73.453 89.5218 72.9909C90.425 72.2189 90.7261 71.1921 89.7457 69.3084C88.9428 67.8493 89.0894 66.4057 90.8033 66.977Z" fill="#001434"/>
<path d="M124.293 47.569C123.691 47.1907 122.34 48.395 122.34 50.8732C122.34 52.4558 123.243 54.7872 124.146 54.5633C125.05 54.3395 124.069 53.2123 123.915 50.9504C123.83 48.92 124.656 47.7928 124.293 47.569Z" fill="#001434"/>
<path d="M104.043 46.1403C104.568 46.4414 105.587 44.7044 105.587 43.3534C105.356 40.6436 103.271 40.5664 103.781 41.7013C104.792 43.9555 103.449 45.8392 104.043 46.1403Z" fill="#001434"/>
<path d="M143.315 63.0627C142.481 62.5377 141.13 62.7616 140.528 64.267C140.149 65.1703 139.323 65.3941 139.1 64.5681C138.876 63.7421 139.401 62.916 138.945 62.916C137.594 62.9855 137.139 66.5213 139.547 66.5213C141.655 66.5213 141.956 62.9855 142.782 65.0236C143.932 67.8723 144.897 64.2516 143.315 63.0627Z" fill="#001434"/>
<path d="M99.3801 45.7621C98.9015 46.8352 102.167 48.0781 102.615 45.5382C102.978 43.477 100.214 43.5542 100.43 42.6741C100.43 41.8635 101.781 42.5969 101.781 41.7013C101.781 40.8058 99.0018 40.5665 98.8474 42.6046C98.8474 44.3648 101.549 44.689 101.032 45.461C100.654 45.9551 99.5885 45.1831 99.3801 45.7621Z" fill="#001434"/>
<path d="M129.921 54.262C129.473 54.7869 129.319 55.6902 130.524 55.2424C133.982 53.8142 133.535 48.773 131.203 46.9665C130.3 46.2871 129.319 46.4415 130.222 47.6382C131.727 49.6762 132.013 52.3088 129.921 54.262Z" fill="#001434"/>
<path d="M140.382 70.4357C143.238 70.6596 144.589 68.9303 143.841 68.7065C143.316 68.5598 141.81 69.3858 139.78 68.7837C137.75 68.1815 137.14 66.6761 136.692 66.9C136.09 67.1238 136.769 70.1347 140.382 70.4357Z" fill="#001434"/>
<path d="M128.269 49.6762C129.396 49.6762 128.871 48.3174 127.497 48.3946C126.594 48.4718 125.544 49.7457 126.524 51.4827C127.119 52.3859 127.049 52.9186 126.146 52.6175C125.243 52.3164 125.243 53.2892 126.146 53.8219C126.357 53.9675 126.598 54.0638 126.852 54.1036C127.105 54.1434 127.364 54.1257 127.61 54.0519C127.855 53.9778 128.081 53.8492 128.27 53.6757C128.459 53.5022 128.606 53.2883 128.701 53.0499C128.925 52.2238 128.4 51.4672 127.798 50.7338C127.709 50.6452 127.648 50.5317 127.625 50.4081C127.601 50.2844 127.616 50.1566 127.666 50.0413C127.718 49.9264 127.803 49.83 127.911 49.7647C128.018 49.6995 128.143 49.6686 128.269 49.6762Z" fill="#001434"/>
<path d="M146.094 64.2671C146.867 64.1899 146.55 61.7812 144.89 60.4071C142.937 58.755 140.382 59.4266 140.304 60.1832C140.304 60.7853 141.733 60.2604 143.392 61.3103C145.415 62.6845 145.492 64.3443 146.094 64.2671Z" fill="#001434"/>
<path d="M7.44194 119.11C2.33125 119.334 3.98335 124.453 4.66272 127.163C4.77805 127.836 5.11343 128.452 5.61633 128.914C6.11924 129.377 6.76128 129.659 7.44194 129.718C8.27571 146.872 8.27571 144.911 23.1677 145.158C37.2337 145.382 36.6315 145.227 37.3109 129.718C39.0402 129.494 39.7968 128.436 40.1673 126.861C40.6228 124.978 41.9738 121.82 40.5456 120.315C39.2718 118.964 37.612 119.033 23.6232 118.809C23.3652 117.315 23.1874 115.807 23.0905 114.293C23.1677 113.089 21.9634 112.942 21.6623 114.146C21.2146 116.022 21.8862 117.605 21.7395 118.887C15.4399 119.033 10.4528 118.964 7.44194 119.11ZM31.7447 142.881C27.8847 143.413 17.7482 143.336 13.8419 142.958C9.80429 142.595 10.144 141.885 9.32564 129.872C16.6983 129.718 30.5404 129.872 35.5044 129.795C34.9022 140.318 35.5739 142.356 31.7447 142.881ZM37.0098 120.917C40.4684 121.141 39.0402 124.005 38.3686 126.259C37.9903 127.61 37.5965 127.989 36.4077 127.911C6.5773 127.911 7.07138 128.398 6.39201 126.784C6.11072 125.82 5.88391 124.84 5.71265 123.851C5.41156 122.044 5.56597 121.064 7.44194 120.917C11.5799 120.693 32.9491 120.539 37.0098 120.917Z" fill="#001434"/>
<path d="M91.7066 76.6038C95.1652 75.7778 96.5162 72.242 96.3386 69.9877C96.161 67.7335 94.9104 67.5791 94.756 68.7062C94.6788 70.7366 93.5517 74.1102 90.7724 75.7778C90.2011 76.0634 90.5022 76.9049 91.7066 76.6038Z" fill="#001434"/>
<path d="M87.3368 63.9659C88.1706 63.5181 87.6379 62.6149 85.8392 63.2865C84.4662 63.8141 83.3072 64.7827 82.5443 66.0403C81.7814 67.2978 81.4577 68.7731 81.624 70.2346C81.9251 72.8671 83.4305 72.9443 83.3533 71.8172C83.1989 68.2582 84.1485 65.7724 87.3368 63.9659Z" fill="#001434"/>
<path d="M94.0381 24.6942C94.4403 24.9612 94.9297 25.0637 95.4052 24.9803C95.8807 24.897 96.306 24.6343 96.5935 24.2465C97.4195 23.3432 96.3696 21.2356 96.8946 20.8573C97.4195 20.4791 97.875 21.6294 98.4386 21.2356C99.2646 20.7879 97.5353 18.4487 96.0299 19.3519C95.2579 19.8074 95.1267 20.8573 95.5049 22.44C95.6516 23.1193 95.1267 23.5671 94.5245 23.266C94.0767 23.0421 93.8451 22.6638 93.4746 22.741C93.104 22.8182 92.9959 24.1461 94.0381 24.6942Z" fill="#001434"/>
<path d="M126.539 26.7248C126.987 26.7248 127.435 25.3738 125.482 25.6749C125.208 25.7311 124.949 25.8441 124.722 26.0066C124.494 26.1691 124.304 26.3774 124.162 26.6182C124.02 26.859 123.93 27.1269 123.898 27.4046C123.866 27.6822 123.893 27.9635 123.976 28.2302C124.748 29.7742 126.848 29.0022 127.288 29.5117C127.597 29.8823 127.211 30.5617 125.937 30.5617C125.335 30.5617 125.405 31.9976 127.134 31.766C128.678 31.6193 129.697 29.5889 128.338 28.3846C127.566 27.6126 125.783 28.0063 125.482 27.6126C125.181 27.2189 125.482 26.7248 126.539 26.7248Z" fill="#001434"/>
<path d="M132.106 27.6279C131.574 24.7715 128.872 24.6248 129.698 25.8214C130.609 27.1979 131.008 28.8512 130.825 30.4921C130.747 31.6964 132.708 30.716 132.106 27.6279Z" fill="#001434"/>
<path d="M121.267 28.909C121.475 32.769 125.127 33.4638 124.131 32.0665C122.587 29.9358 122.324 28.4612 122.402 27.2569C122.479 26.0526 121.12 27.0253 121.267 28.909Z" fill="#001434"/>
<path d="M96.1457 43.431C96.2152 46.519 99.3032 47.291 98.3228 45.9091C97.8751 45.2121 97.6009 44.4181 97.523 43.5934C97.4451 42.7688 97.5658 41.9374 97.875 41.169C98.3691 39.7794 96.0685 40.8679 96.1457 43.431Z" fill="#001434"/>
</svg>
