<svg width="1547" height="2000" viewBox="0 0 1547 2000" fill="none" xmlns="http://www.w3.org/2000/svg">
<g clip-path="url(#clip0_48_506)">
<rect width="1547" height="2000" fill="white"/>
<line y1="-0.5" x2="8620.53" y2="-0.5" transform="matrix(0.499063 -0.866566 0.499063 0.866566 -3731.82 4722.92)" stroke="black"/>
<line y1="-0.5" x2="8620.53" y2="-0.5" transform="matrix(0.499063 -0.866566 0.499063 0.866566 -3724.97 4734.82)" stroke="black"/>
<line y1="-0.5" x2="8620.53" y2="-0.5" transform="matrix(0.499063 -0.866566 0.499063 0.866566 -3718.11 4746.72)" stroke="black"/>
<line y1="-0.5" x2="8620.53" y2="-0.5" transform="matrix(0.499063 -0.866566 0.499063 0.866566 -3711.26 4758.62)" stroke="black"/>
<line y1="-0.5" x2="8620.53" y2="-0.5" transform="matrix(0.499063 -0.866566 0.499063 0.866566 -3704.41 4770.53)" stroke="black"/>
<line y1="-0.5" x2="8620.53" y2="-0.5" transform="matrix(0.499063 -0.866566 0.499063 0.866566 -3697.55 4782.43)" stroke="black"/>
<line y1="-0.5" x2="8620.53" y2="-0.5" transform="matrix(0.499063 -0.866566 0.499063 0.866566 -3690.69 4794.33)" stroke="black"/>
<line y1="-0.5" x2="8620.53" y2="-0.5" transform="matrix(0.499063 -0.866566 0.499063 0.866566 -3683.84 4806.24)" stroke="black"/>
<line y1="-0.5" x2="8620.53" y2="-0.5" transform="matrix(0.499063 -0.866566 0.499063 0.866566 -3676.99 4818.14)" stroke="black"/>
<line y1="-0.5" x2="8620.53" y2="-0.5" transform="matrix(0.499063 -0.866566 0.499063 0.866566 -3670.13 4830.04)" stroke="black"/>
<line y1="-0.5" x2="8620.53" y2="-0.5" transform="matrix(0.499063 -0.866566 0.499063 0.866566 -3663.28 4841.95)" stroke="black"/>
<line y1="-0.5" x2="8620.53" y2="-0.5" transform="matrix(0.499063 -0.866566 0.499063 0.866566 -3656.42 4853.84)" stroke="black"/>
<line y1="-0.5" x2="8620.53" y2="-0.5" transform="matrix(0.499063 -0.866566 0.499063 0.866566 -3649.57 4865.75)" stroke="black"/>
<line y1="-0.5" x2="8620.53" y2="-0.5" transform="matrix(0.499063 -0.866566 0.499063 0.866566 -3642.71 4877.65)" stroke="black"/>
<line y1="-0.5" x2="8620.53" y2="-0.5" transform="matrix(0.499063 -0.866566 0.499063 0.866566 -3635.86 4889.55)" stroke="black"/>
<line y1="-0.5" x2="8620.53" y2="-0.5" transform="matrix(0.499063 -0.866566 0.499063 0.866566 -3629 4901.45)" stroke="black"/>
<line y1="-0.5" x2="8620.53" y2="-0.5" transform="matrix(0.499063 -0.866566 0.499063 0.866566 -3622.15 4913.36)" stroke="black"/>
<line y1="-0.5" x2="8620.53" y2="-0.5" transform="matrix(0.499063 -0.866566 0.499063 0.866566 -3615.29 4925.26)" stroke="black"/>
<line y1="-0.5" x2="8620.53" y2="-0.5" transform="matrix(0.499063 -0.866566 0.499063 0.866566 -3608.44 4937.16)" stroke="black"/>
<line y1="-0.5" x2="8620.53" y2="-0.5" transform="matrix(0.499063 -0.866566 0.499063 0.866566 -3601.58 4949.07)" stroke="black"/>
<line y1="-0.5" x2="8620.53" y2="-0.5" transform="matrix(0.499063 -0.866566 0.499063 0.866566 -3594.73 4960.97)" stroke="black"/>
<line y1="-0.5" x2="8620.53" y2="-0.5" transform="matrix(0.499063 -0.866566 0.499063 0.866566 -3587.87 4972.87)" stroke="black"/>
<line y1="-0.5" x2="8620.53" y2="-0.5" transform="matrix(0.499063 -0.866566 0.499063 0.866566 -3581.02 4984.78)" stroke="black"/>
<line y1="-0.5" x2="8620.53" y2="-0.5" transform="matrix(0.499063 -0.866566 0.499063 0.866566 -3574.16 4996.68)" stroke="black"/>
<line y1="-0.5" x2="8620.53" y2="-0.5" transform="matrix(0.499063 -0.866566 0.499063 0.866566 -3567.31 5008.58)" stroke="black"/>
<line y1="-0.5" x2="8620.53" y2="-0.5" transform="matrix(0.499063 -0.866566 0.499063 0.866566 -3560.45 5020.48)" stroke="black"/>
<line y1="-0.5" x2="8620.53" y2="-0.5" transform="matrix(0.499063 -0.866566 0.499063 0.866566 -3553.6 5032.38)" stroke="black"/>
<line y1="-0.5" x2="8620.53" y2="-0.5" transform="matrix(0.499063 -0.866566 0.499063 0.866566 -3546.74 5044.29)" stroke="black"/>
<line y1="-0.5" x2="8620.53" y2="-0.5" transform="matrix(0.499063 -0.866566 0.499063 0.866566 -3539.89 5056.19)" stroke="black"/>
<line y1="-0.5" x2="8620.53" y2="-0.5" transform="matrix(0.499063 -0.866566 0.499063 0.866566 -3533.03 5068.09)" stroke="black"/>
<line y1="-0.5" x2="8620.53" y2="-0.5" transform="matrix(0.499063 -0.866566 0.499063 0.866566 -3526.18 5080)" stroke="black"/>
<line y1="-0.5" x2="8620.53" y2="-0.5" transform="matrix(0.499063 -0.866566 0.499063 0.866566 -3519.33 5091.9)" stroke="black"/>
<line y1="-0.5" x2="8620.53" y2="-0.5" transform="matrix(0.499063 -0.866566 0.499063 0.866566 -3512.47 5103.8)" stroke="black"/>
<line y1="-0.5" x2="8620.53" y2="-0.5" transform="matrix(0.499063 -0.866566 0.499063 0.866566 -3505.61 5115.7)" stroke="black"/>
<line y1="-0.5" x2="8620.53" y2="-0.5" transform="matrix(0.499063 -0.866566 0.499063 0.866566 -3498.76 5127.61)" stroke="black"/>
<line y1="-0.5" x2="8620.53" y2="-0.5" transform="matrix(0.499063 -0.866566 0.499063 0.866566 -3491.9 5139.51)" stroke="black"/>
<line y1="-0.5" x2="8620.53" y2="-0.5" transform="matrix(0.499063 -0.866566 0.499063 0.866566 -3485.05 5151.41)" stroke="black"/>
<line y1="-0.5" x2="8620.53" y2="-0.5" transform="matrix(0.499063 -0.866566 0.499063 0.866566 -3478.2 5163.32)" stroke="black"/>
<line y1="-0.5" x2="8620.53" y2="-0.5" transform="matrix(0.499063 -0.866566 0.499063 0.866566 -3471.34 5175.22)" stroke="black"/>
<line y1="-0.5" x2="8620.53" y2="-0.5" transform="matrix(0.499063 -0.866566 0.499063 0.866566 -3464.49 5187.12)" stroke="black"/>
<line y1="-0.5" x2="8620.53" y2="-0.5" transform="matrix(0.499063 -0.866566 0.499063 0.866566 -3457.63 5199.02)" stroke="black"/>
<line y1="-0.5" x2="8620.53" y2="-0.5" transform="matrix(0.499063 -0.866566 0.499063 0.866566 -3450.78 5210.92)" stroke="black"/>
<line y1="-0.5" x2="8620.53" y2="-0.5" transform="matrix(0.499063 -0.866566 0.499063 0.866566 -3443.92 5222.83)" stroke="black"/>
<line y1="-0.5" x2="8620.53" y2="-0.5" transform="matrix(0.499063 -0.866566 0.499063 0.866566 -3437.07 5234.73)" stroke="black"/>
<line y1="-0.5" x2="8620.53" y2="-0.5" transform="matrix(0.499063 -0.866566 0.499063 0.866566 -3430.21 5246.63)" stroke="black"/>
<line y1="-0.5" x2="8620.53" y2="-0.5" transform="matrix(0.499063 -0.866566 0.499063 0.866566 -3423.36 5258.54)" stroke="black"/>
<line y1="-0.5" x2="8620.53" y2="-0.5" transform="matrix(0.499063 -0.866566 0.499063 0.866566 -3416.5 5270.44)" stroke="black"/>
<line y1="-0.5" x2="8620.53" y2="-0.5" transform="matrix(0.499063 -0.866566 0.499063 0.866566 -3409.65 5282.34)" stroke="black"/>
<line y1="-0.5" x2="8620.53" y2="-0.5" transform="matrix(0.499063 -0.866566 0.499063 0.866566 -3402.79 5294.25)" stroke="black"/>
<line y1="-0.5" x2="8620.53" y2="-0.5" transform="matrix(0.499063 -0.866566 0.499063 0.866566 -3395.94 5306.15)" stroke="black"/>
<line y1="-0.5" x2="8620.53" y2="-0.5" transform="matrix(0.499063 -0.866566 0.499063 0.866566 -3389.08 5318.05)" stroke="black"/>
<line y1="-0.5" x2="8620.53" y2="-0.5" transform="matrix(0.499063 -0.866566 0.499063 0.866566 -3382.23 5329.95)" stroke="black"/>
<line y1="-0.5" x2="8620.53" y2="-0.5" transform="matrix(0.499063 -0.866566 0.499063 0.866566 -3375.37 5341.85)" stroke="black"/>
<line y1="-0.5" x2="8620.53" y2="-0.5" transform="matrix(0.499063 -0.866566 0.499063 0.866566 -3368.52 5353.76)" stroke="black"/>
<line y1="-0.5" x2="8620.53" y2="-0.5" transform="matrix(0.499063 -0.866566 0.499063 0.866566 -3361.66 5365.66)" stroke="black"/>
<line y1="-0.5" x2="8620.53" y2="-0.5" transform="matrix(0.499063 -0.866566 0.499063 0.866566 -3354.81 5377.56)" stroke="black"/>
<line y1="-0.5" x2="8620.53" y2="-0.5" transform="matrix(0.499063 -0.866566 0.499063 0.866566 -3347.95 5389.46)" stroke="black"/>
<line y1="-0.5" x2="8620.53" y2="-0.5" transform="matrix(0.499063 -0.866566 0.499063 0.866566 -3341.1 5401.37)" stroke="black"/>
<line y1="-0.5" x2="8620.53" y2="-0.5" transform="matrix(0.499063 -0.866566 0.499063 0.866566 -3334.25 5413.27)" stroke="black"/>
<line y1="-0.5" x2="8620.53" y2="-0.5" transform="matrix(0.499063 -0.866566 0.499063 0.866566 -3327.39 5425.17)" stroke="black"/>
<line y1="-0.5" x2="8620.53" y2="-0.5" transform="matrix(0.499063 -0.866566 0.499063 0.866566 -3320.53 5437.08)" stroke="black"/>
<line y1="-0.5" x2="8620.53" y2="-0.5" transform="matrix(0.499063 -0.866566 0.499063 0.866566 -3313.68 5448.98)" stroke="black"/>
<line y1="-0.5" x2="8620.53" y2="-0.5" transform="matrix(0.499063 -0.866566 0.499063 0.866566 -3306.83 5460.88)" stroke="black"/>
<line y1="-0.5" x2="8620.53" y2="-0.5" transform="matrix(0.499063 -0.866566 0.499063 0.866566 -3299.97 5472.79)" stroke="black"/>
<line y1="-0.5" x2="8620.53" y2="-0.5" transform="matrix(0.499063 -0.866566 0.499063 0.866566 -3293.12 5484.69)" stroke="black"/>
<line y1="-0.5" x2="8620.53" y2="-0.5" transform="matrix(0.499063 -0.866566 0.499063 0.866566 -3286.26 5496.59)" stroke="black"/>
<line y1="-0.5" x2="8620.53" y2="-0.5" transform="matrix(0.499063 -0.866566 0.499063 0.866566 -3279.41 5508.49)" stroke="black"/>
<line y1="-0.5" x2="8620.53" y2="-0.5" transform="matrix(0.499063 -0.866566 0.499063 0.866566 -3272.55 5520.4)" stroke="black"/>
<line y1="-0.5" x2="8620.53" y2="-0.5" transform="matrix(0.499063 -0.866566 0.499063 0.866566 -3265.7 5532.3)" stroke="black"/>
<line y1="-0.5" x2="8620.53" y2="-0.5" transform="matrix(0.499063 -0.866566 0.499063 0.866566 -3258.84 5544.2)" stroke="black"/>
<line y1="-0.5" x2="8620.53" y2="-0.5" transform="matrix(0.499063 -0.866566 0.499063 0.866566 -3251.99 5556.11)" stroke="black"/>
<line y1="-0.5" x2="8620.53" y2="-0.5" transform="matrix(0.499063 -0.866566 0.499063 0.866566 -3245.13 5568.01)" stroke="black"/>
<line y1="-0.5" x2="8620.53" y2="-0.5" transform="matrix(0.499063 -0.866566 0.499063 0.866566 -3238.28 5579.91)" stroke="black"/>
<line y1="-0.5" x2="8620.53" y2="-0.5" transform="matrix(0.499063 -0.866566 0.499063 0.866566 -3231.42 5591.81)" stroke="black"/>
<line y1="-0.5" x2="8620.53" y2="-0.5" transform="matrix(0.499063 -0.866566 0.499063 0.866566 -3224.57 5603.71)" stroke="black"/>
<line y1="-0.5" x2="8620.53" y2="-0.5" transform="matrix(0.499063 -0.866566 0.499063 0.866566 -3217.71 5615.62)" stroke="black"/>
<line y1="-0.5" x2="8620.53" y2="-0.5" transform="matrix(0.499063 -0.866566 0.499063 0.866566 -3210.86 5627.52)" stroke="black"/>
<line y1="-0.5" x2="8620.53" y2="-0.5" transform="matrix(0.499063 -0.866566 0.499063 0.866566 -3204 5639.42)" stroke="black"/>
<line y1="-0.5" x2="8620.53" y2="-0.5" transform="matrix(0.499063 -0.866566 0.499063 0.866566 -3197.15 5651.33)" stroke="black"/>
<line y1="-0.5" x2="8620.53" y2="-0.5" transform="matrix(0.499063 -0.866566 0.499063 0.866566 -3190.29 5663.23)" stroke="black"/>
<line y1="-0.5" x2="8620.53" y2="-0.5" transform="matrix(0.499063 -0.866566 0.499063 0.866566 -3183.44 5675.13)" stroke="black"/>
<line y1="-0.5" x2="8620.53" y2="-0.5" transform="matrix(0.499063 -0.866566 0.499063 0.866566 -3176.58 5687.03)" stroke="black"/>
<line y1="-0.5" x2="8620.53" y2="-0.5" transform="matrix(0.499063 -0.866566 0.499063 0.866566 -3169.73 5698.94)" stroke="black"/>
<line y1="-0.5" x2="8620.53" y2="-0.5" transform="matrix(0.499063 -0.866566 0.499063 0.866566 -3162.87 5710.84)" stroke="black"/>
<line y1="-0.5" x2="8620.53" y2="-0.5" transform="matrix(0.499063 -0.866566 0.499063 0.866566 -3156.02 5722.74)" stroke="black"/>
<line y1="-0.5" x2="8620.53" y2="-0.5" transform="matrix(0.499063 -0.866566 0.499063 0.866566 -3149.16 5734.65)" stroke="black"/>
<line y1="-0.5" x2="8620.53" y2="-0.5" transform="matrix(0.499063 -0.866566 0.499063 0.866566 -3142.31 5746.55)" stroke="black"/>
<line y1="-0.5" x2="8620.53" y2="-0.5" transform="matrix(0.499063 -0.866566 0.499063 0.866566 -3135.45 5758.45)" stroke="black"/>
<line y1="-0.5" x2="8620.53" y2="-0.5" transform="matrix(0.499063 -0.866566 0.499063 0.866566 -3128.6 5770.35)" stroke="black"/>
<line y1="-0.5" x2="8620.53" y2="-0.5" transform="matrix(0.499063 -0.866566 0.499063 0.866566 -3121.74 5782.25)" stroke="black"/>
<line y1="-0.5" x2="8620.53" y2="-0.5" transform="matrix(0.499063 -0.866566 0.499063 0.866566 -3114.89 5794.16)" stroke="black"/>
<line y1="-0.5" x2="8620.53" y2="-0.5" transform="matrix(0.499063 -0.866566 0.499063 0.866566 -3108.04 5806.06)" stroke="black"/>
<line y1="-0.5" x2="8620.53" y2="-0.5" transform="matrix(0.499063 -0.866566 0.499063 0.866566 -3101.18 5817.96)" stroke="black"/>
<line y1="-0.5" x2="8620.53" y2="-0.5" transform="matrix(0.499063 -0.866566 0.499063 0.866566 -3094.33 5829.86)" stroke="black"/>
<line y1="-0.5" x2="8620.53" y2="-0.5" transform="matrix(0.499063 -0.866566 0.499063 0.866566 -3087.47 5841.77)" stroke="black"/>
<line y1="-0.5" x2="8620.53" y2="-0.5" transform="matrix(0.499063 -0.866566 0.499063 0.866566 -3080.62 5853.67)" stroke="black"/>
<line y1="-0.5" x2="8620.53" y2="-0.5" transform="matrix(0.499063 -0.866566 0.499063 0.866566 -3073.76 5865.57)" stroke="black"/>
<line y1="-0.5" x2="8620.53" y2="-0.5" transform="matrix(0.499063 -0.866566 0.499063 0.866566 -3066.91 5877.48)" stroke="black"/>
<line y1="-0.5" x2="8620.53" y2="-0.5" transform="matrix(0.499063 -0.866566 0.499063 0.866566 -3060.05 5889.38)" stroke="black"/>
<line y1="-0.5" x2="8620.53" y2="-0.5" transform="matrix(0.499063 -0.866566 0.499063 0.866566 -3053.2 5901.28)" stroke="black"/>
<line y1="-0.5" x2="8620.53" y2="-0.5" transform="matrix(0.499063 -0.866566 0.499063 0.866566 -3046.34 5913.18)" stroke="black"/>
<line y1="-0.5" x2="8620.53" y2="-0.5" transform="matrix(0.499063 -0.866566 0.499063 0.866566 -3039.49 5925.09)" stroke="black"/>
<line y1="-0.5" x2="8620.53" y2="-0.5" transform="matrix(0.499063 -0.866566 0.499063 0.866566 -3032.63 5936.99)" stroke="black"/>
<line y1="-0.5" x2="8620.53" y2="-0.5" transform="matrix(0.499063 -0.866566 0.499063 0.866566 -3025.78 5948.89)" stroke="black"/>
<line y1="-0.5" x2="8620.53" y2="-0.5" transform="matrix(0.499063 -0.866566 0.499063 0.866566 -3018.92 5960.79)" stroke="black"/>
<line y1="-0.5" x2="8620.53" y2="-0.5" transform="matrix(0.499063 -0.866566 0.499063 0.866566 -3012.07 5972.7)" stroke="black"/>
<line y1="-0.5" x2="8620.53" y2="-0.5" transform="matrix(0.499063 -0.866566 0.499063 0.866566 -3005.21 5984.6)" stroke="black"/>
<line y1="-0.5" x2="8620.53" y2="-0.5" transform="matrix(0.499063 -0.866566 0.499063 0.866566 -2998.36 5996.5)" stroke="black"/>
<line y1="-0.5" x2="8620.53" y2="-0.5" transform="matrix(0.499063 -0.866566 0.499063 0.866566 -2991.5 6008.4)" stroke="black"/>
<line y1="-0.5" x2="8620.53" y2="-0.5" transform="matrix(0.499063 -0.866566 0.499063 0.866566 -2984.65 6020.31)" stroke="black"/>
<line y1="-0.5" x2="8620.53" y2="-0.5" transform="matrix(0.499063 -0.866566 0.499063 0.866566 -2977.79 6032.21)" stroke="black"/>
<line y1="-0.5" x2="8620.53" y2="-0.5" transform="matrix(0.499063 -0.866566 0.499063 0.866566 -2970.94 6044.11)" stroke="black"/>
<line y1="-0.5" x2="8620.53" y2="-0.5" transform="matrix(0.499063 -0.866566 0.499063 0.866566 -2964.08 6056.02)" stroke="black"/>
<line y1="-0.5" x2="8620.53" y2="-0.5" transform="matrix(0.499063 -0.866566 0.499063 0.866566 -2957.23 6067.92)" stroke="black"/>
<line y1="-0.5" x2="8620.53" y2="-0.5" transform="matrix(0.499063 -0.866566 0.499063 0.866566 -2950.37 6079.82)" stroke="black"/>
<line y1="-0.5" x2="8620.53" y2="-0.5" transform="matrix(0.499063 -0.866566 0.499063 0.866566 -2943.52 6091.72)" stroke="black"/>
<line y1="-0.5" x2="8620.53" y2="-0.5" transform="matrix(0.499063 -0.866566 0.499063 0.866566 -2936.66 6103.62)" stroke="black"/>
<line y1="-0.5" x2="8620.53" y2="-0.5" transform="matrix(0.499063 -0.866566 0.499063 0.866566 -2929.81 6115.53)" stroke="black"/>
<line y1="-0.5" x2="8620.53" y2="-0.5" transform="matrix(0.499063 -0.866566 0.499063 0.866566 -2922.96 6127.43)" stroke="black"/>
<line y1="-0.5" x2="8620.53" y2="-0.5" transform="matrix(0.499063 -0.866566 0.499063 0.866566 -2916.1 6139.33)" stroke="black"/>
<line y1="-0.5" x2="8620.53" y2="-0.5" transform="matrix(0.499063 -0.866566 0.499063 0.866566 -2909.25 6151.24)" stroke="black"/>
<line y1="-0.5" x2="8620.53" y2="-0.5" transform="matrix(0.499063 -0.866566 0.499063 0.866566 -2902.39 6163.14)" stroke="black"/>
<line y1="-0.5" x2="8620.53" y2="-0.5" transform="matrix(0.499063 -0.866566 0.499063 0.866566 -2895.54 6175.04)" stroke="black"/>
<line y1="-0.5" x2="8620.53" y2="-0.5" transform="matrix(0.499063 -0.866566 0.499063 0.866566 -2888.68 6186.94)" stroke="black"/>
<line y1="-0.5" x2="8620.53" y2="-0.5" transform="matrix(0.499063 -0.866566 0.499063 0.866566 -2881.83 6198.85)" stroke="black"/>
<line y1="-0.5" x2="8620.53" y2="-0.5" transform="matrix(0.499063 -0.866566 0.499063 0.866566 -2874.97 6210.75)" stroke="black"/>
<line y1="-0.5" x2="8620.53" y2="-0.5" transform="matrix(0.499063 -0.866566 0.499063 0.866566 -2868.12 6222.65)" stroke="black"/>
<line y1="-0.5" x2="8620.53" y2="-0.5" transform="matrix(0.499063 -0.866566 0.499063 0.866566 -2861.26 6234.56)" stroke="black"/>
<line y1="-0.5" x2="8620.53" y2="-0.5" transform="matrix(0.499063 -0.866566 0.499063 0.866566 -2854.41 6246.46)" stroke="black"/>
<line y1="-0.5" x2="8620.53" y2="-0.5" transform="matrix(0.499063 -0.866566 0.499063 0.866566 -2847.55 6258.36)" stroke="black"/>
<line y1="-0.5" x2="8620.53" y2="-0.5" transform="matrix(0.499063 -0.866566 0.499063 0.866566 -2840.7 6270.26)" stroke="black"/>
<line y1="-0.5" x2="8620.53" y2="-0.5" transform="matrix(0.499063 -0.866566 0.499063 0.866566 -2833.84 6282.17)" stroke="black"/>
<line y1="-0.5" x2="8620.53" y2="-0.5" transform="matrix(0.499063 -0.866566 0.499063 0.866566 -2826.99 6294.07)" stroke="black"/>
<line y1="-0.5" x2="8620.53" y2="-0.5" transform="matrix(0.499063 -0.866566 0.499063 0.866566 -2820.13 6305.97)" stroke="black"/>
<line y1="-0.5" x2="8620.53" y2="-0.5" transform="matrix(0.499063 -0.866566 0.499063 0.866566 -2813.28 6317.87)" stroke="black"/>
<line y1="-0.5" x2="8620.53" y2="-0.5" transform="matrix(0.499063 -0.866566 0.499063 0.866566 -2806.42 6329.78)" stroke="black"/>
<line y1="-0.5" x2="8620.53" y2="-0.5" transform="matrix(0.499063 -0.866566 0.499063 0.866566 -2799.57 6341.68)" stroke="black"/>
<line y1="-0.5" x2="8620.53" y2="-0.5" transform="matrix(0.499063 -0.866566 0.499063 0.866566 -2792.71 6353.58)" stroke="black"/>
<line y1="-0.5" x2="8620.53" y2="-0.5" transform="matrix(0.499063 -0.866566 0.499063 0.866566 -2785.86 6365.48)" stroke="black"/>
<line y1="-0.5" x2="8620.53" y2="-0.5" transform="matrix(0.499063 -0.866566 0.499063 0.866566 -2779 6377.39)" stroke="black"/>
<line y1="-0.5" x2="8620.53" y2="-0.5" transform="matrix(0.499063 -0.866566 0.499063 0.866566 -2772.15 6389.29)" stroke="black"/>
<line y1="-0.5" x2="8620.53" y2="-0.5" transform="matrix(0.499063 -0.866566 0.499063 0.866566 -2765.29 6401.19)" stroke="black"/>
<line y1="-0.5" x2="8620.53" y2="-0.5" transform="matrix(0.499063 -0.866566 0.499063 0.866566 -2758.44 6413.09)" stroke="black"/>
<line y1="-0.5" x2="8620.53" y2="-0.5" transform="matrix(0.499063 -0.866566 0.499063 0.866566 -2751.58 6425)" stroke="black"/>
<line y1="-0.5" x2="8620.53" y2="-0.5" transform="matrix(0.499063 -0.866566 0.499063 0.866566 -2744.73 6436.9)" stroke="black"/>
<line y1="-0.5" x2="8620.53" y2="-0.5" transform="matrix(0.499063 -0.866566 0.499063 0.866566 -2737.87 6448.8)" stroke="black"/>
<line y1="-0.5" x2="8620.53" y2="-0.5" transform="matrix(0.499063 -0.866566 0.499063 0.866566 -2731.02 6460.7)" stroke="black"/>
<line y1="-0.5" x2="8620.53" y2="-0.5" transform="matrix(0.499063 -0.866566 0.499063 0.866566 -2724.16 6472.61)" stroke="black"/>
<line y1="-0.5" x2="8620.53" y2="-0.5" transform="matrix(0.499063 -0.866566 0.499063 0.866566 -2717.31 6484.51)" stroke="black"/>
<line y1="-0.5" x2="8620.53" y2="-0.5" transform="matrix(0.499063 -0.866566 0.499063 0.866566 -2710.45 6496.41)" stroke="black"/>
<line y1="-0.5" x2="8620.53" y2="-0.5" transform="matrix(0.499063 -0.866566 0.499063 0.866566 -2703.6 6508.31)" stroke="black"/>
<line y1="-0.5" x2="8620.53" y2="-0.5" transform="matrix(0.499063 -0.866566 0.499063 0.866566 -2696.75 6520.22)" stroke="black"/>
<line y1="-0.5" x2="8620.53" y2="-0.5" transform="matrix(0.499063 -0.866566 0.499063 0.866566 -2689.89 6532.12)" stroke="black"/>
<line y1="-0.5" x2="8620.53" y2="-0.5" transform="matrix(0.499063 -0.866566 0.499063 0.866566 -2683.04 6544.02)" stroke="black"/>
<line y1="-0.5" x2="8620.53" y2="-0.5" transform="matrix(0.499063 -0.866566 0.499063 0.866566 -2676.18 6555.92)" stroke="black"/>
<line y1="-0.5" x2="8620.53" y2="-0.5" transform="matrix(0.499063 -0.866566 0.499063 0.866566 -2669.33 6567.83)" stroke="black"/>
<line y1="-0.5" x2="8620.53" y2="-0.5" transform="matrix(0.499063 -0.866566 0.499063 0.866566 -2662.47 6579.73)" stroke="black"/>
<line y1="-0.5" x2="8620.53" y2="-0.5" transform="matrix(0.499063 -0.866566 0.499063 0.866566 -2655.62 6591.63)" stroke="black"/>
<line y1="-0.5" x2="8620.53" y2="-0.5" transform="matrix(0.499063 -0.866566 0.499063 0.866566 -2648.76 6603.54)" stroke="black"/>
<line y1="-0.5" x2="8620.53" y2="-0.5" transform="matrix(0.499063 -0.866566 0.499063 0.866566 -2641.91 6615.44)" stroke="black"/>
<line y1="-0.5" x2="8620.53" y2="-0.5" transform="matrix(0.499063 -0.866566 0.499063 0.866566 -2635.05 6627.34)" stroke="black"/>
<line y1="-0.5" x2="8620.53" y2="-0.5" transform="matrix(0.499063 -0.866566 0.499063 0.866566 -2628.2 6639.25)" stroke="black"/>
<line y1="-0.5" x2="8620.53" y2="-0.5" transform="matrix(0.499063 -0.866566 0.499063 0.866566 -2621.34 6651.15)" stroke="black"/>
<line y1="-0.5" x2="8620.53" y2="-0.5" transform="matrix(0.499063 -0.866566 0.499063 0.866566 -2614.49 6663.05)" stroke="black"/>
<line y1="-0.5" x2="8620.53" y2="-0.5" transform="matrix(0.499063 -0.866566 0.499063 0.866566 -2607.63 6674.95)" stroke="black"/>
<line y1="-0.5" x2="8620.53" y2="-0.5" transform="matrix(0.499063 -0.866566 0.499063 0.866566 -2600.78 6686.86)" stroke="black"/>
<line y1="-0.5" x2="8620.53" y2="-0.5" transform="matrix(0.499063 -0.866566 0.499063 0.866566 -2593.92 6698.76)" stroke="black"/>
<line y1="-0.5" x2="8620.53" y2="-0.5" transform="matrix(0.499063 -0.866566 0.499063 0.866566 -2587.07 6710.66)" stroke="black"/>
<line y1="-0.5" x2="8620.53" y2="-0.5" transform="matrix(0.499063 -0.866566 0.499063 0.866566 -2580.21 6722.56)" stroke="black"/>
<line y1="-0.5" x2="8620.53" y2="-0.5" transform="matrix(0.499063 -0.866566 0.499063 0.866566 -2573.36 6734.47)" stroke="black"/>
<line y1="-0.5" x2="8620.53" y2="-0.5" transform="matrix(0.499063 -0.866566 0.499063 0.866566 -2566.5 6746.37)" stroke="black"/>
<line y1="-0.5" x2="8620.53" y2="-0.5" transform="matrix(0.499063 -0.866566 0.499063 0.866566 -2559.65 6758.27)" stroke="black"/>
<line y1="-0.5" x2="8620.53" y2="-0.5" transform="matrix(0.499063 -0.866566 0.499063 0.866566 -2552.79 6770.17)" stroke="black"/>
<line y1="-0.5" x2="8620.53" y2="-0.5" transform="matrix(0.499063 -0.866566 0.499063 0.866566 -2545.94 6782.08)" stroke="black"/>
<line y1="-0.5" x2="8620.53" y2="-0.5" transform="matrix(0.499063 -0.866566 0.499063 0.866566 -2539.08 6793.98)" stroke="black"/>
<line y1="-0.5" x2="8620.53" y2="-0.5" transform="matrix(0.499063 -0.866566 0.499063 0.866566 -2532.23 6805.88)" stroke="black"/>
<line y1="-0.5" x2="8620.53" y2="-0.5" transform="matrix(0.499063 -0.866566 0.499063 0.866566 -2525.38 6817.78)" stroke="black"/>
<line y1="-0.5" x2="8620.53" y2="-0.5" transform="matrix(0.499063 -0.866566 0.499063 0.866566 -2518.52 6829.69)" stroke="black"/>
<line y1="-0.5" x2="8620.53" y2="-0.5" transform="matrix(0.499063 -0.866566 0.499063 0.866566 -2511.67 6841.59)" stroke="black"/>
<line y1="-0.5" x2="8620.53" y2="-0.5" transform="matrix(0.499063 -0.866566 0.499063 0.866566 -2504.81 6853.49)" stroke="black"/>
<line y1="-0.5" x2="8620.53" y2="-0.5" transform="matrix(0.499063 -0.866566 0.499063 0.866566 -2497.96 6865.4)" stroke="black"/>
<line y1="-0.5" x2="8620.53" y2="-0.5" transform="matrix(0.499063 -0.866566 0.499063 0.866566 -2491.1 6877.3)" stroke="black"/>
<line y1="-0.5" x2="8620.53" y2="-0.5" transform="matrix(0.499063 -0.866566 0.499063 0.866566 -2484.25 6889.2)" stroke="black"/>
<line y1="-0.5" x2="8620.53" y2="-0.5" transform="matrix(0.499063 -0.866566 0.499063 0.866566 -2477.39 6901.1)" stroke="black"/>
<line y1="-0.5" x2="8620.53" y2="-0.5" transform="matrix(0.499063 -0.866566 0.499063 0.866566 -2470.54 6913)" stroke="black"/>
<line y1="-0.5" x2="8620.53" y2="-0.5" transform="matrix(0.499063 -0.866566 0.499063 0.866566 -2463.68 6924.91)" stroke="black"/>
<line y1="-0.5" x2="8620.53" y2="-0.5" transform="matrix(0.499063 -0.866566 0.499063 0.866566 -2456.83 6936.81)" stroke="black"/>
<line y1="-0.5" x2="8620.53" y2="-0.5" transform="matrix(0.499063 -0.866566 0.499063 0.866566 -2449.97 6948.71)" stroke="black"/>
<line y1="-0.5" x2="8620.53" y2="-0.5" transform="matrix(0.499063 -0.866566 0.499063 0.866566 -2443.12 6960.62)" stroke="black"/>
<line y1="-0.5" x2="8620.53" y2="-0.5" transform="matrix(0.499063 -0.866566 0.499063 0.866566 -2436.26 6972.52)" stroke="black"/>
<line y1="-0.5" x2="8620.53" y2="-0.5" transform="matrix(0.499063 -0.866566 0.499063 0.866566 -2429.41 6984.42)" stroke="black"/>
<line y1="-0.5" x2="8620.53" y2="-0.5" transform="matrix(0.499063 -0.866566 0.499063 0.866566 -2422.55 6996.33)" stroke="black"/>
<line y1="-0.5" x2="8620.53" y2="-0.5" transform="matrix(0.499063 -0.866566 0.499063 0.866566 -2415.7 7008.23)" stroke="black"/>
<line y1="-0.5" x2="8620.53" y2="-0.5" transform="matrix(0.499063 -0.866566 0.499063 0.866566 -2408.84 7020.13)" stroke="black"/>
<line y1="-0.5" x2="8620.53" y2="-0.5" transform="matrix(0.499063 -0.866566 0.499063 0.866566 -2401.99 7032.03)" stroke="black"/>
<line y1="-0.5" x2="8620.53" y2="-0.5" transform="matrix(0.499063 -0.866566 0.499063 0.866566 -2395.13 7043.93)" stroke="black"/>
<line y1="-0.5" x2="8620.53" y2="-0.5" transform="matrix(0.499063 -0.866566 0.499063 0.866566 -2388.28 7055.84)" stroke="black"/>
<line y1="-0.5" x2="8620.53" y2="-0.5" transform="matrix(0.499063 -0.866566 0.499063 0.866566 -2381.42 7067.74)" stroke="black"/>
<line y1="-0.5" x2="8620.53" y2="-0.5" transform="matrix(0.499063 -0.866566 0.499063 0.866566 -2374.57 7079.64)" stroke="black"/>
<line y1="-0.5" x2="8620.53" y2="-0.5" transform="matrix(0.499063 -0.866566 0.499063 0.866566 -2367.71 7091.54)" stroke="black"/>
<line y1="-0.5" x2="8620.53" y2="-0.5" transform="matrix(0.499063 -0.866566 0.499063 0.866566 -2360.86 7103.45)" stroke="black"/>
<line y1="-0.5" x2="8620.53" y2="-0.5" transform="matrix(0.499063 -0.866566 0.499063 0.866566 -2354 7115.35)" stroke="black"/>
<line y1="-0.5" x2="8620.53" y2="-0.5" transform="matrix(0.499063 -0.866566 0.499063 0.866566 -2347.15 7127.25)" stroke="black"/>
<line y1="-0.5" x2="8620.53" y2="-0.5" transform="matrix(0.499063 -0.866566 0.499063 0.866566 -2340.29 7139.16)" stroke="black"/>
<line y1="-0.5" x2="8620.53" y2="-0.5" transform="matrix(0.499063 -0.866566 0.499063 0.866566 -2333.44 7151.06)" stroke="black"/>
<line y1="-0.5" x2="8620.53" y2="-0.5" transform="matrix(0.499063 -0.866566 0.499063 0.866566 -2326.58 7162.96)" stroke="black"/>
<line y1="-0.5" x2="8620.53" y2="-0.5" transform="matrix(0.499063 -0.866566 0.499063 0.866566 -2319.73 7174.86)" stroke="black"/>
<line y1="-0.5" x2="8620.53" y2="-0.5" transform="matrix(0.499063 -0.866566 0.499063 0.866566 -2312.87 7186.76)" stroke="black"/>
<line y1="-0.5" x2="8620.53" y2="-0.5" transform="matrix(0.499063 -0.866566 0.499063 0.866566 -2306.02 7198.67)" stroke="black"/>
<line y1="-0.5" x2="8620.53" y2="-0.5" transform="matrix(0.499063 -0.866566 0.499063 0.866566 -2299.16 7210.57)" stroke="black"/>
<line y1="-0.5" x2="8620.53" y2="-0.5" transform="matrix(0.499063 -0.866566 0.499063 0.866566 -2292.31 7222.47)" stroke="black"/>
<line y1="-0.5" x2="8620.53" y2="-0.5" transform="matrix(0.499063 -0.866566 0.499063 0.866566 -2285.46 7234.38)" stroke="black"/>
<line y1="-0.5" x2="8620.53" y2="-0.5" transform="matrix(0.499063 -0.866566 0.499063 0.866566 -2278.6 7246.28)" stroke="black"/>
<line y1="-0.5" x2="8620.53" y2="-0.5" transform="matrix(0.499063 -0.866566 0.499063 0.866566 -2271.75 7258.18)" stroke="black"/>
<line y1="-0.5" x2="8620.53" y2="-0.5" transform="matrix(0.499063 -0.866566 0.499063 0.866566 -2264.89 7270.08)" stroke="black"/>
<line y1="-0.5" x2="8620.53" y2="-0.5" transform="matrix(0.499063 -0.866566 0.499063 0.866566 -2258.04 7281.99)" stroke="black"/>
<line y1="-0.5" x2="8620.53" y2="-0.5" transform="matrix(0.499063 -0.866566 0.499063 0.866566 -2251.18 7293.89)" stroke="black"/>
<line y1="-0.5" x2="8620.53" y2="-0.5" transform="matrix(0.499063 -0.866566 0.499063 0.866566 -2244.33 7305.79)" stroke="black"/>
<line y1="-0.5" x2="8620.53" y2="-0.5" transform="matrix(0.499063 -0.866566 0.499063 0.866566 -2237.47 7317.7)" stroke="black"/>
<line y1="-0.5" x2="8620.53" y2="-0.5" transform="matrix(0.499063 -0.866566 0.499063 0.866566 -2230.62 7329.6)" stroke="black"/>
<line y1="-0.5" x2="8620.53" y2="-0.5" transform="matrix(0.499063 -0.866566 0.499063 0.866566 -2223.76 7341.5)" stroke="black"/>
<line y1="-0.5" x2="8620.53" y2="-0.5" transform="matrix(0.499063 -0.866566 0.499063 0.866566 -2216.91 7353.4)" stroke="black"/>
<line y1="-0.5" x2="8620.53" y2="-0.5" transform="matrix(0.499063 -0.866566 0.499063 0.866566 -2210.05 7365.31)" stroke="black"/>
<line y1="-0.5" x2="8620.53" y2="-0.5" transform="matrix(0.499063 -0.866566 0.499063 0.866566 -2203.2 7377.21)" stroke="black"/>
<line y1="-0.5" x2="8620.53" y2="-0.5" transform="matrix(0.499063 -0.866566 0.499063 0.866566 -2196.34 7389.11)" stroke="black"/>
<line y1="-0.5" x2="8620.53" y2="-0.5" transform="matrix(0.499063 -0.866566 0.499063 0.866566 -2189.49 7401.01)" stroke="black"/>
<line y1="-0.5" x2="8620.53" y2="-0.5" transform="matrix(0.499063 -0.866566 0.499063 0.866566 -2182.63 7412.92)" stroke="black"/>
<line y1="-0.5" x2="8620.53" y2="-0.5" transform="matrix(0.499063 -0.866566 0.499063 0.866566 -2175.78 7424.82)" stroke="black"/>
<line y1="-0.5" x2="8620.53" y2="-0.5" transform="matrix(0.499063 -0.866566 0.499063 0.866566 -2168.92 7436.72)" stroke="black"/>
<line y1="-0.5" x2="8620.53" y2="-0.5" transform="matrix(0.499063 -0.866566 0.499063 0.866566 -2162.07 7448.62)" stroke="black"/>
<line y1="-0.5" x2="8620.53" y2="-0.5" transform="matrix(0.499063 -0.866566 0.499063 0.866566 -2155.21 7460.53)" stroke="black"/>
<line y1="-0.5" x2="8620.53" y2="-0.5" transform="matrix(0.499063 -0.866566 0.499063 0.866566 -2148.36 7472.43)" stroke="black"/>
<line y1="-0.5" x2="8620.53" y2="-0.5" transform="matrix(0.499063 -0.866566 0.499063 0.866566 -2141.5 7484.33)" stroke="black"/>
<line y1="-0.5" x2="8620.53" y2="-0.5" transform="matrix(0.499063 -0.866566 0.499063 0.866566 -2134.65 7496.24)" stroke="black"/>
<line y1="-0.5" x2="8620.53" y2="-0.5" transform="matrix(0.499063 -0.866566 0.499063 0.866566 -2127.79 7508.14)" stroke="black"/>
<line y1="-0.5" x2="8620.53" y2="-0.5" transform="matrix(0.499063 -0.866566 0.499063 0.866566 -2120.94 7520.04)" stroke="black"/>
<line y1="-0.5" x2="8620.53" y2="-0.5" transform="matrix(0.499063 -0.866566 0.499063 0.866566 -2114.08 7531.94)" stroke="black"/>
<line y1="-0.5" x2="8620.53" y2="-0.5" transform="matrix(0.499063 -0.866566 0.499063 0.866566 -2107.23 7543.84)" stroke="black"/>
<line y1="-0.5" x2="8620.53" y2="-0.5" transform="matrix(0.499063 -0.866566 0.499063 0.866566 -2100.38 7555.75)" stroke="black"/>
<line y1="-0.5" x2="8620.53" y2="-0.5" transform="matrix(0.499063 -0.866566 0.499063 0.866566 -2093.52 7567.65)" stroke="black"/>
<line y1="-0.5" x2="8620.53" y2="-0.5" transform="matrix(0.499063 -0.866566 0.499063 0.866566 -2086.67 7579.56)" stroke="black"/>
<line y1="-0.5" x2="8620.53" y2="-0.5" transform="matrix(0.499063 -0.866566 0.499063 0.866566 -2079.81 7591.45)" stroke="black"/>
<line y1="-0.5" x2="8620.53" y2="-0.5" transform="matrix(0.499063 -0.866566 0.499063 0.866566 -2072.96 7603.36)" stroke="black"/>
<line y1="-0.5" x2="8620.53" y2="-0.5" transform="matrix(0.499063 -0.866566 0.499063 0.866566 -2066.1 7615.26)" stroke="black"/>
<line y1="-0.5" x2="8620.53" y2="-0.5" transform="matrix(0.499063 -0.866566 0.499063 0.866566 -2059.25 7627.16)" stroke="black"/>
<line y1="-0.5" x2="8620.53" y2="-0.5" transform="matrix(0.499063 -0.866566 0.499063 0.866566 -2052.39 7639.07)" stroke="black"/>
<line y1="-0.5" x2="8620.53" y2="-0.5" transform="matrix(0.499063 -0.866566 0.499063 0.866566 -2045.54 7650.97)" stroke="black"/>
<line y1="-0.5" x2="8620.53" y2="-0.5" transform="matrix(0.499063 -0.866566 0.499063 0.866566 -2038.68 7662.87)" stroke="black"/>
<line y1="-0.5" x2="8620.53" y2="-0.5" transform="matrix(0.499063 -0.866566 0.499063 0.866566 -2031.83 7674.78)" stroke="black"/>
<line y1="-0.5" x2="8620.53" y2="-0.5" transform="matrix(0.499063 -0.866566 0.499063 0.866566 -2024.97 7686.68)" stroke="black"/>
<line y1="-0.5" x2="8620.53" y2="-0.5" transform="matrix(0.499063 -0.866566 0.499063 0.866566 -2018.12 7698.58)" stroke="black"/>
<line y1="-0.5" x2="8620.53" y2="-0.5" transform="matrix(0.499063 -0.866566 0.499063 0.866566 -2011.26 7710.48)" stroke="black"/>
<line y1="-0.5" x2="8620.53" y2="-0.5" transform="matrix(0.499063 -0.866566 0.499063 0.866566 -2004.41 7722.38)" stroke="black"/>
<line y1="-0.5" x2="8620.53" y2="-0.5" transform="matrix(0.499063 -0.866566 0.499063 0.866566 -1997.55 7734.29)" stroke="black"/>
<line y1="-0.5" x2="8620.53" y2="-0.5" transform="matrix(0.499063 -0.866566 0.499063 0.866566 -1990.7 7746.19)" stroke="black"/>
<line y1="-0.5" x2="8620.53" y2="-0.5" transform="matrix(0.499063 -0.866566 0.499063 0.866566 -1983.84 7758.09)" stroke="black"/>
<line y1="-0.5" x2="8620.53" y2="-0.5" transform="matrix(0.499063 -0.866566 0.499063 0.866566 -1976.99 7770)" stroke="black"/>
<line y1="-0.5" x2="8620.53" y2="-0.5" transform="matrix(0.499063 -0.866566 0.499063 0.866566 -1970.13 7781.9)" stroke="black"/>
<line y1="-0.5" x2="8620.53" y2="-0.5" transform="matrix(0.499063 -0.866566 0.499063 0.866566 -1963.28 7793.8)" stroke="black"/>
<line y1="-0.5" x2="8620.53" y2="-0.5" transform="matrix(0.499063 -0.866566 0.499063 0.866566 -1956.42 7805.7)" stroke="black"/>
<line y1="-0.5" x2="8620.53" y2="-0.5" transform="matrix(0.499063 -0.866566 0.499063 0.866566 -1949.57 7817.6)" stroke="black"/>
<line y1="-0.5" x2="8620.53" y2="-0.5" transform="matrix(0.499063 -0.866566 0.499063 0.866566 -1942.71 7829.51)" stroke="black"/>
<line y1="-0.5" x2="8620.53" y2="-0.5" transform="matrix(0.499063 -0.866566 0.499063 0.866566 -1935.86 7841.41)" stroke="black"/>
<line y1="-0.5" x2="8620.53" y2="-0.5" transform="matrix(0.499063 -0.866566 0.499063 0.866566 -1929 7853.31)" stroke="black"/>
<line y1="-0.5" x2="8620.53" y2="-0.5" transform="matrix(0.499063 -0.866566 0.499063 0.866566 -1922.15 7865.22)" stroke="black"/>
<line y1="-0.5" x2="8620.53" y2="-0.5" transform="matrix(0.499063 -0.866566 0.499063 0.866566 -1915.29 7877.12)" stroke="black"/>
<line y1="-0.5" x2="8620.53" y2="-0.5" transform="matrix(0.499063 -0.866566 0.499063 0.866566 -1908.44 7889.02)" stroke="black"/>
<line y1="-0.5" x2="8620.53" y2="-0.5" transform="matrix(0.499063 -0.866566 0.499063 0.866566 -1901.58 7900.92)" stroke="black"/>
<line y1="-0.5" x2="8620.53" y2="-0.5" transform="matrix(0.499063 -0.866566 0.499063 0.866566 -1894.73 7912.83)" stroke="black"/>
<line y1="-0.5" x2="8620.53" y2="-0.5" transform="matrix(0.499063 -0.866566 0.499063 0.866566 -1887.88 7924.73)" stroke="black"/>
<line y1="-0.5" x2="8620.53" y2="-0.5" transform="matrix(0.499063 -0.866566 0.499063 0.866566 -1881.02 7936.63)" stroke="black"/>
<line y1="-0.5" x2="8620.53" y2="-0.5" transform="matrix(0.499063 -0.866566 0.499063 0.866566 -1874.17 7948.54)" stroke="black"/>
<line y1="-0.5" x2="8620.53" y2="-0.5" transform="matrix(0.499063 -0.866566 0.499063 0.866566 -1867.31 7960.44)" stroke="black"/>
<line y1="-0.5" x2="8620.53" y2="-0.5" transform="matrix(0.499063 -0.866566 0.499063 0.866566 -1860.46 7972.34)" stroke="black"/>
<line y1="-0.5" x2="8620.53" y2="-0.5" transform="matrix(0.499063 -0.866566 0.499063 0.866566 -1853.6 7984.24)" stroke="black"/>
<line y1="-0.5" x2="8620.53" y2="-0.5" transform="matrix(0.499063 -0.866566 0.499063 0.866566 -1846.75 7996.15)" stroke="black"/>
<line y1="-0.5" x2="8620.53" y2="-0.5" transform="matrix(0.499063 -0.866566 0.499063 0.866566 -1839.89 8008.05)" stroke="black"/>
<line y1="-0.5" x2="8620.53" y2="-0.5" transform="matrix(0.499063 -0.866566 0.499063 0.866566 -1833.04 8019.95)" stroke="black"/>
<line y1="-0.5" x2="8620.53" y2="-0.5" transform="matrix(0.499063 -0.866566 0.499063 0.866566 -1826.18 8031.85)" stroke="black"/>
<line y1="-0.5" x2="8620.53" y2="-0.5" transform="matrix(0.499063 -0.866566 0.499063 0.866566 -1819.33 8043.76)" stroke="black"/>
<line y1="-0.5" x2="8620.53" y2="-0.5" transform="matrix(0.499063 -0.866566 0.499063 0.866566 -1812.47 8055.66)" stroke="black"/>
<line y1="-0.5" x2="8620.53" y2="-0.5" transform="matrix(0.499063 -0.866566 0.499063 0.866566 -1805.62 8067.56)" stroke="black"/>
<line y1="-0.5" x2="8620.53" y2="-0.5" transform="matrix(0.499063 -0.866566 0.499063 0.866566 -1798.76 8079.47)" stroke="black"/>
<line y1="-0.5" x2="8620.53" y2="-0.5" transform="matrix(0.499063 -0.866566 0.499063 0.866566 -1791.91 8091.37)" stroke="black"/>
<line y1="-0.5" x2="8620.53" y2="-0.5" transform="matrix(0.499063 -0.866566 0.499063 0.866566 -1785.05 8103.27)" stroke="black"/>
<line y1="-0.5" x2="8620.53" y2="-0.5" transform="matrix(0.499063 -0.866566 0.499063 0.866566 -1778.2 8115.17)" stroke="black"/>
<line y1="-0.5" x2="8620.53" y2="-0.5" transform="matrix(0.499063 -0.866566 0.499063 0.866566 -1771.34 8127.08)" stroke="black"/>
<line y1="-0.5" x2="8620.53" y2="-0.5" transform="matrix(0.499063 -0.866566 0.499063 0.866566 -1764.49 8138.98)" stroke="black"/>
<line y1="-0.5" x2="8620.53" y2="-0.5" transform="matrix(0.499063 -0.866566 0.499063 0.866566 -1757.63 8150.88)" stroke="black"/>
<line y1="-0.5" x2="8620.53" y2="-0.5" transform="matrix(0.499063 -0.866566 0.499063 0.866566 -1750.78 8162.79)" stroke="black"/>
<line y1="-0.5" x2="8620.53" y2="-0.5" transform="matrix(0.499063 -0.866566 0.499063 0.866566 -1743.92 8174.69)" stroke="black"/>
<line y1="-0.5" x2="8620.53" y2="-0.5" transform="matrix(0.499063 -0.866566 0.499063 0.866566 -1737.07 8186.59)" stroke="black"/>
<line y1="-0.5" x2="8620.53" y2="-0.5" transform="matrix(0.499063 -0.866566 0.499063 0.866566 -1730.21 8198.49)" stroke="black"/>
<line y1="-0.5" x2="8620.53" y2="-0.5" transform="matrix(0.499063 -0.866566 0.499063 0.866566 -1723.36 8210.4)" stroke="black"/>
<line y1="-0.5" x2="8620.53" y2="-0.5" transform="matrix(0.499063 -0.866566 0.499063 0.866566 -1716.5 8222.3)" stroke="black"/>
<line y1="-0.5" x2="8620.53" y2="-0.5" transform="matrix(0.499063 -0.866566 0.499063 0.866566 -1709.65 8234.2)" stroke="black"/>
<line y1="-0.5" x2="8620.53" y2="-0.5" transform="matrix(0.499063 -0.866566 0.499063 0.866566 -1702.79 8246.1)" stroke="black"/>
<line y1="-0.5" x2="8620.53" y2="-0.5" transform="matrix(0.499063 -0.866566 0.499063 0.866566 -1695.94 8258)" stroke="black"/>
<line y1="-0.5" x2="8620.53" y2="-0.5" transform="matrix(0.499063 -0.866566 0.499063 0.866566 -1689.08 8269.91)" stroke="black"/>
<line y1="-0.5" x2="8620.53" y2="-0.5" transform="matrix(0.499063 -0.866566 0.499063 0.866566 -1682.23 8281.81)" stroke="black"/>
<line y1="-0.5" x2="8620.53" y2="-0.5" transform="matrix(0.499063 -0.866566 0.499063 0.866566 -1675.38 8293.71)" stroke="black"/>
<line y1="-0.5" x2="8620.53" y2="-0.5" transform="matrix(0.499063 -0.866566 0.499063 0.866566 -1668.52 8305.61)" stroke="black"/>
<line y1="-0.5" x2="8620.53" y2="-0.5" transform="matrix(0.499063 -0.866566 0.499063 0.866566 -1661.67 8317.52)" stroke="black"/>
<line y1="-0.5" x2="8620.53" y2="-0.5" transform="matrix(0.499063 -0.866566 0.499063 0.866566 -1654.81 8329.42)" stroke="black"/>
<line y1="-0.5" x2="8620.53" y2="-0.5" transform="matrix(0.499063 -0.866566 0.499063 0.866566 -1647.96 8341.33)" stroke="black"/>
<line y1="-0.5" x2="8620.53" y2="-0.5" transform="matrix(0.499063 -0.866566 0.499063 0.866566 -1641.1 8353.23)" stroke="black"/>
<line y1="-0.5" x2="8620.53" y2="-0.5" transform="matrix(0.499063 -0.866566 0.499063 0.866566 -1634.25 8365.13)" stroke="black"/>
<line y1="-0.5" x2="8620.53" y2="-0.5" transform="matrix(0.499063 -0.866566 0.499063 0.866566 -1627.39 8377.03)" stroke="black"/>
<line y1="-0.5" x2="8620.53" y2="-0.5" transform="matrix(0.499063 -0.866566 0.499063 0.866566 -1620.54 8388.93)" stroke="black"/>
<line y1="-0.5" x2="8620.53" y2="-0.5" transform="matrix(0.499063 -0.866566 0.499063 0.866566 -1613.68 8400.83)" stroke="black"/>
<line y1="-0.5" x2="8620.53" y2="-0.5" transform="matrix(0.499063 -0.866566 0.499063 0.866566 -1606.83 8412.74)" stroke="black"/>
<line y1="-0.5" x2="8620.53" y2="-0.5" transform="matrix(0.499063 -0.866566 0.499063 0.866566 -1599.97 8424.64)" stroke="black"/>
<line y1="-0.5" x2="8620.53" y2="-0.5" transform="matrix(0.499063 -0.866566 0.499063 0.866566 -1593.12 8436.55)" stroke="black"/>
<line y1="-0.5" x2="8620.53" y2="-0.5" transform="matrix(0.499063 -0.866566 0.499063 0.866566 -1586.26 8448.45)" stroke="black"/>
<line y1="-0.5" x2="8620.53" y2="-0.5" transform="matrix(0.499063 -0.866566 0.499063 0.866566 -1579.41 8460.35)" stroke="black"/>
<line y1="-0.5" x2="8620.53" y2="-0.5" transform="matrix(0.499063 -0.866566 0.499063 0.866566 -1572.55 8472.25)" stroke="black"/>
<line y1="-0.5" x2="8620.53" y2="-0.5" transform="matrix(0.499063 -0.866566 0.499063 0.866566 -1565.7 8484.15)" stroke="black"/>
<line y1="-0.5" x2="8620.53" y2="-0.5" transform="matrix(0.499063 -0.866566 0.499063 0.866566 -1558.84 8496.06)" stroke="black"/>
<line y1="-0.5" x2="8620.53" y2="-0.5" transform="matrix(0.499063 -0.866566 0.499063 0.866566 -1551.99 8507.96)" stroke="black"/>
<line y1="-0.5" x2="8620.53" y2="-0.5" transform="matrix(0.499063 -0.866566 0.499063 0.866566 -1545.13 8519.86)" stroke="black"/>
<line y1="-0.5" x2="8620.53" y2="-0.5" transform="matrix(0.499063 -0.866566 0.499063 0.866566 -1538.28 8531.76)" stroke="black"/>
<line y1="-0.5" x2="8620.53" y2="-0.5" transform="matrix(0.499063 -0.866566 0.499063 0.866566 -1531.42 8543.67)" stroke="black"/>
<line y1="-0.5" x2="8620.53" y2="-0.5" transform="matrix(0.499063 -0.866566 0.499063 0.866566 -1524.57 8555.57)" stroke="black"/>
<line y1="-0.5" x2="8620.53" y2="-0.5" transform="matrix(0.499063 -0.866566 0.499063 0.866566 -1517.71 8567.47)" stroke="black"/>
<line y1="-0.5" x2="8620.53" y2="-0.5" transform="matrix(0.499063 -0.866566 0.499063 0.866566 -1510.86 8579.38)" stroke="black"/>
<line y1="-0.5" x2="8620.53" y2="-0.5" transform="matrix(0.499063 -0.866566 0.499063 0.866566 -1504 8591.28)" stroke="black"/>
<line y1="-0.5" x2="8620.53" y2="-0.5" transform="matrix(0.499063 -0.866566 0.499063 0.866566 -1497.15 8603.18)" stroke="black"/>
<line y1="-0.5" x2="8620.53" y2="-0.5" transform="matrix(0.499063 -0.866566 0.499063 0.866566 -1490.29 8615.08)" stroke="black"/>
<line y1="-0.5" x2="8620.53" y2="-0.5" transform="matrix(0.499063 -0.866566 0.499063 0.866566 -1483.44 8626.99)" stroke="black"/>
<line y1="-0.5" x2="8620.53" y2="-0.5" transform="matrix(0.499063 -0.866566 0.499063 0.866566 -1476.58 8638.89)" stroke="black"/>
<line y1="-0.5" x2="8620.53" y2="-0.5" transform="matrix(0.499063 -0.866566 0.499063 0.866566 -1469.73 8650.79)" stroke="black"/>
<line y1="-0.5" x2="8620.53" y2="-0.5" transform="matrix(0.499063 -0.866566 0.499063 0.866566 -1462.88 8662.69)" stroke="black"/>
<line y1="-0.5" x2="8620.53" y2="-0.5" transform="matrix(0.499063 -0.866566 0.499063 0.866566 -1456.02 8674.59)" stroke="black"/>
<line y1="-0.5" x2="8620.53" y2="-0.5" transform="matrix(0.499063 -0.866566 0.499063 0.866566 -1449.17 8686.5)" stroke="black"/>
<line y1="-0.5" x2="8620.53" y2="-0.5" transform="matrix(0.499063 -0.866566 0.499063 0.866566 -1442.31 8698.4)" stroke="black"/>
<line y1="-0.5" x2="8620.53" y2="-0.5" transform="matrix(0.499063 -0.866566 0.499063 0.866566 -1435.46 8710.3)" stroke="black"/>
<line y1="-0.5" x2="8620.53" y2="-0.5" transform="matrix(0.499063 -0.866566 0.499063 0.866566 -1428.6 8722.21)" stroke="black"/>
<line y1="-0.5" x2="8620.53" y2="-0.5" transform="matrix(0.499063 -0.866566 0.499063 0.866566 -1421.75 8734.11)" stroke="black"/>
<line y1="-0.5" x2="8620.53" y2="-0.5" transform="matrix(0.499063 -0.866566 0.499063 0.866566 -1414.89 8746.01)" stroke="black"/>
<line y1="-0.5" x2="8620.53" y2="-0.5" transform="matrix(0.499063 -0.866566 0.499063 0.866566 -1408.04 8757.92)" stroke="black"/>
<line y1="-0.5" x2="8620.53" y2="-0.5" transform="matrix(0.499063 -0.866566 0.499063 0.866566 -1401.18 8769.82)" stroke="black"/>
<line y1="-0.5" x2="8620.53" y2="-0.5" transform="matrix(0.499063 -0.866566 0.499063 0.866566 -1394.33 8781.72)" stroke="black"/>
<line y1="-0.5" x2="8620.53" y2="-0.5" transform="matrix(0.499063 -0.866566 0.499063 0.866566 -1387.47 8793.62)" stroke="black"/>
<line y1="-0.5" x2="8620.53" y2="-0.5" transform="matrix(0.499063 -0.866566 0.499063 0.866566 -1380.62 8805.53)" stroke="black"/>
<line y1="-0.5" x2="8620.53" y2="-0.5" transform="matrix(0.499063 -0.866566 0.499063 0.866566 -1373.76 8817.43)" stroke="black"/>
<line y1="-0.5" x2="8620.53" y2="-0.5" transform="matrix(0.499063 -0.866566 0.499063 0.866566 -1366.91 8829.33)" stroke="black"/>
<line y1="-0.5" x2="8620.53" y2="-0.5" transform="matrix(0.499063 -0.866566 0.499063 0.866566 -1360.05 8841.24)" stroke="black"/>
<line y1="-0.5" x2="8620.53" y2="-0.5" transform="matrix(0.499063 -0.866566 0.499063 0.866566 -1353.2 8853.14)" stroke="black"/>
<line y1="-0.5" x2="8620.53" y2="-0.5" transform="matrix(0.499063 -0.866566 0.499063 0.866566 -1346.34 8865.04)" stroke="black"/>
<line y1="-0.5" x2="8620.53" y2="-0.5" transform="matrix(0.499063 -0.866566 0.499063 0.866566 -1339.49 8876.94)" stroke="black"/>
<line y1="-0.5" x2="8620.53" y2="-0.5" transform="matrix(0.499063 -0.866566 0.499063 0.866566 -1332.63 8888.84)" stroke="black"/>
<line y1="-0.5" x2="8620.53" y2="-0.5" transform="matrix(0.499063 -0.866566 0.499063 0.866566 -1325.78 8900.75)" stroke="black"/>
<line y1="-0.5" x2="8620.53" y2="-0.5" transform="matrix(0.499063 -0.866566 0.499063 0.866566 -1318.92 8912.65)" stroke="black"/>
<line y1="-0.5" x2="8620.53" y2="-0.5" transform="matrix(0.499063 -0.866566 0.499063 0.866566 -1312.07 8924.55)" stroke="black"/>
<line y1="-0.5" x2="8620.53" y2="-0.5" transform="matrix(0.499063 -0.866566 0.499063 0.866566 -1305.21 8936.46)" stroke="black"/>
<line y1="-0.5" x2="8620.53" y2="-0.5" transform="matrix(0.499063 -0.866566 0.499063 0.866566 -1298.36 8948.36)" stroke="black"/>
<line y1="-0.5" x2="8620.53" y2="-0.5" transform="matrix(0.499063 -0.866566 0.499063 0.866566 -1291.5 8960.26)" stroke="black"/>
<line y1="-0.5" x2="8620.53" y2="-0.5" transform="matrix(0.499063 -0.866566 0.499063 0.866566 -1284.65 8972.16)" stroke="black"/>
<line y1="-0.5" x2="8620.53" y2="-0.5" transform="matrix(0.499063 -0.866566 0.499063 0.866566 -1277.79 8984.07)" stroke="black"/>
<line y1="-0.5" x2="8620.53" y2="-0.5" transform="matrix(0.499063 -0.866566 0.499063 0.866566 -1270.94 8995.97)" stroke="black"/>
<line y1="-0.5" x2="8620.53" y2="-0.5" transform="matrix(0.499063 -0.866566 0.499063 0.866566 -1264.09 9007.87)" stroke="black"/>
<line y1="-0.5" x2="8620.53" y2="-0.5" transform="matrix(0.499063 -0.866566 0.499063 0.866566 -1257.23 9019.77)" stroke="black"/>
<line y1="-0.5" x2="8620.53" y2="-0.5" transform="matrix(0.499063 -0.866566 0.499063 0.866566 -1250.38 9031.67)" stroke="black"/>
<line y1="-0.5" x2="8620.53" y2="-0.5" transform="matrix(0.499063 -0.866566 0.499063 0.866566 -1243.52 9043.58)" stroke="black"/>
<line y1="-0.5" x2="8620.53" y2="-0.5" transform="matrix(0.499063 -0.866566 0.499063 0.866566 -1236.67 9055.48)" stroke="black"/>
<line y1="-0.5" x2="8620.53" y2="-0.5" transform="matrix(0.499063 -0.866566 0.499063 0.866566 -1229.81 9067.38)" stroke="black"/>
<line y1="-0.5" x2="8620.53" y2="-0.5" transform="matrix(0.499063 -0.866566 0.499063 0.866566 -1222.96 9079.28)" stroke="black"/>
<line y1="-0.5" x2="8620.53" y2="-0.5" transform="matrix(0.499063 -0.866566 0.499063 0.866566 -1216.1 9091.19)" stroke="black"/>
<line y1="-0.5" x2="8620.53" y2="-0.5" transform="matrix(0.499063 -0.866566 0.499063 0.866566 -1209.25 9103.09)" stroke="black"/>
<line y1="-0.5" x2="8620.53" y2="-0.5" transform="matrix(0.499063 -0.866566 0.499063 0.866566 -1202.39 9115)" stroke="black"/>
<line y1="-0.5" x2="8620.53" y2="-0.5" transform="matrix(0.499063 -0.866566 0.499063 0.866566 -1195.54 9126.9)" stroke="black"/>
<line y1="-0.5" x2="8620.53" y2="-0.5" transform="matrix(0.499063 -0.866566 0.499063 0.866566 -1188.68 9138.8)" stroke="black"/>
<line y1="-0.5" x2="8620.53" y2="-0.5" transform="matrix(0.499063 -0.866566 0.499063 0.866566 -1181.83 9150.7)" stroke="black"/>
<line y1="-0.5" x2="8620.53" y2="-0.5" transform="matrix(0.499063 -0.866566 0.499063 0.866566 -1174.97 9162.6)" stroke="black"/>
<line y1="-0.5" x2="8620.53" y2="-0.5" transform="matrix(0.499063 -0.866566 0.499063 0.866566 -1168.12 9174.51)" stroke="black"/>
<line y1="-0.5" x2="8620.53" y2="-0.5" transform="matrix(0.499063 -0.866566 0.499063 0.866566 -1161.26 9186.41)" stroke="black"/>
<line y1="-0.5" x2="8620.53" y2="-0.5" transform="matrix(0.499063 -0.866566 0.499063 0.866566 -1154.41 9198.31)" stroke="black"/>
<line y1="-0.5" x2="8620.53" y2="-0.5" transform="matrix(0.499063 -0.866566 0.499063 0.866566 -1147.55 9210.22)" stroke="black"/>
<line y1="-0.5" x2="8620.53" y2="-0.5" transform="matrix(0.499063 -0.866566 0.499063 0.866566 -1140.7 9222.11)" stroke="black"/>
<line y1="-0.5" x2="8620.53" y2="-0.5" transform="matrix(0.499063 -0.866566 0.499063 0.866566 -1133.84 9234.02)" stroke="black"/>
<line y1="-0.5" x2="8620.53" y2="-0.5" transform="matrix(0.499063 -0.866566 0.499063 0.866566 -1126.99 9245.92)" stroke="black"/>
<line y1="-0.5" x2="8620.53" y2="-0.5" transform="matrix(0.499063 -0.866566 0.499063 0.866566 -1120.13 9257.83)" stroke="black"/>
<line y1="-0.5" x2="8620.53" y2="-0.5" transform="matrix(0.499063 -0.866566 0.499063 0.866566 -1113.28 9269.73)" stroke="black"/>
<line y1="-0.5" x2="8620.53" y2="-0.5" transform="matrix(0.499063 -0.866566 0.499063 0.866566 -1106.42 9281.63)" stroke="black"/>
<line y1="-0.5" x2="8620.53" y2="-0.5" transform="matrix(0.499063 -0.866566 0.499063 0.866566 -1099.57 9293.53)" stroke="black"/>
<line y1="-0.5" x2="8620.53" y2="-0.5" transform="matrix(0.499063 -0.866566 0.499063 0.866566 -1092.72 9305.44)" stroke="black"/>
<line y1="-0.5" x2="8620.53" y2="-0.5" transform="matrix(0.499063 -0.866566 0.499063 0.866566 -1085.86 9317.34)" stroke="black"/>
<line y1="-0.5" x2="8620.53" y2="-0.5" transform="matrix(0.499063 -0.866566 0.499063 0.866566 -1079 9329.24)" stroke="black"/>
<line y1="-0.5" x2="8620.53" y2="-0.5" transform="matrix(0.499063 -0.866566 0.499063 0.866566 -1072.15 9341.14)" stroke="black"/>
<line y1="-0.5" x2="8620.53" y2="-0.5" transform="matrix(0.499063 -0.866566 0.499063 0.866566 -1065.3 9353.05)" stroke="black"/>
<line y1="-0.5" x2="8620.53" y2="-0.5" transform="matrix(0.499063 -0.866566 0.499063 0.866566 -1058.44 9364.95)" stroke="black"/>
<line y1="-0.5" x2="8620.53" y2="-0.5" transform="matrix(0.499063 -0.866566 0.499063 0.866566 -1051.59 9376.85)" stroke="black"/>
<line y1="-0.5" x2="8620.53" y2="-0.5" transform="matrix(0.499063 -0.866566 0.499063 0.866566 -1044.73 9388.76)" stroke="black"/>
<line y1="-0.5" x2="8620.53" y2="-0.5" transform="matrix(0.499063 -0.866566 0.499063 0.866566 -1037.88 9400.66)" stroke="black"/>
<line y1="-0.5" x2="8620.53" y2="-0.5" transform="matrix(0.499063 -0.866566 0.499063 0.866566 -1031.02 9412.56)" stroke="black"/>
<line y1="-0.5" x2="8620.53" y2="-0.5" transform="matrix(0.499063 -0.866566 0.499063 0.866566 -1024.17 9424.46)" stroke="black"/>
<line y1="-0.5" x2="8620.53" y2="-0.5" transform="matrix(0.499063 -0.866566 0.499063 0.866566 -1017.31 9436.36)" stroke="black"/>
<line y1="-0.5" x2="8620.53" y2="-0.5" transform="matrix(0.499063 -0.866566 0.499063 0.866566 -1010.46 9448.27)" stroke="black"/>
<line y1="-0.5" x2="8620.53" y2="-0.5" transform="matrix(0.499063 -0.866566 0.499063 0.866566 -1003.6 9460.17)" stroke="black"/>
</g>
<defs>
<clipPath id="clip0_48_506">
<rect width="1547" height="2000" fill="white"/>
</clipPath>
</defs>
</svg>
