<svg width="719" height="500" viewBox="0 0 719 500" fill="none" xmlns="http://www.w3.org/2000/svg">
<path fill-rule="evenodd" clip-rule="evenodd" d="M209.481 62.085C124.014 80.6496 60 156.727 60 247.755C60 339.364 124.833 415.83 211.119 433.773L211.388 494.791C91.6503 476.228 0 372.694 0 247.755C0 123.573 90.5422 20.539 209.213 1.06584L209.481 62.085Z" fill="white"/>
<path fill-rule="evenodd" clip-rule="evenodd" d="M286.189 60.9154C373.903 77.7433 440.177 154.886 440.177 247.507C440.177 268.631 437.029 288.478 430.667 307.386L481.805 341.43C493.508 312.496 500.177 280.636 500.177 247.507C500.177 121.467 406.905 17.2119 285.618 0L286.189 60.9154Z" fill="white"/>
<path d="M591.271 499.05L81.7493 158.27L91.1062 143.401L96.0038 136.027L101.475 128.9L113.36 115.478L126.135 103.189L718.137 499.766L591.271 499.05Z" fill="white"/>
<path d="M211.049 434.167L210.189 243.969L143.215 241.131L144.949 406.275L154.35 412.09L164.18 417.388L169.238 419.813L174.321 422.117L184.623 426.416L197.805 430.547L211.049 434.167Z" fill="white"/>
</svg>
